<?xml version="1.0" encoding="UTF-8" ?>
<!DOCTYPE svg PUBLIC "-//W3C//DTD SVG 1.1//EN" "http://www.w3.org/Graphics/SVG/1.1/DTD/svg11.dtd">
<svg width="600pt" height="513pt" viewBox="0 0 600 513" version="1.1" xmlns="http://www.w3.org/2000/svg">
<g id="#ffffffff">
<path fill="#ffffff" stroke="#ffffff" stroke-width="0.09375" opacity="1.00" d=" M 0.00 0.00 L 600.00 0.00 L 600.00 513.00 L 0.00 513.00 L 0.00 0.00 M 337.77 16.72 C 319.89 31.31 304.60 48.89 289.35 65.97 C 290.45 67.09 291.88 67.81 293.09 68.80 C 291.41 68.99 289.84 68.47 288.51 67.46 C 281.55 75.99 275.51 85.21 269.72 94.62 C 258.17 114.00 250.32 136.25 250.65 159.01 C 250.92 164.52 246.57 168.69 245.96 174.04 C 241.82 186.05 238.15 198.09 237.71 210.89 C 236.68 222.58 229.91 233.96 234.32 245.79 C 234.59 249.49 237.16 252.48 239.84 254.81 C 240.11 255.25 240.67 256.12 240.95 256.55 C 227.99 259.91 214.49 256.89 205.55 267.86 C 206.23 275.49 202.58 285.18 209.17 290.95 C 225.45 299.31 241.97 308.35 260.62 309.99 C 261.57 317.99 259.81 325.94 257.95 333.68 C 250.91 357.64 231.02 385.79 249.47 409.27 C 239.54 413.36 228.34 415.15 219.72 421.96 C 221.36 409.59 220.30 396.79 216.65 384.85 C 220.04 378.97 222.88 372.71 224.45 366.08 C 225.70 362.22 227.38 357.68 225.85 353.76 C 225.81 353.37 225.73 352.60 225.69 352.22 C 220.95 349.54 215.21 351.33 210.69 353.61 C 203.46 335.96 226.07 321.68 223.32 303.77 C 212.83 301.31 201.62 301.97 191.06 303.74 C 192.49 290.58 181.31 285.81 170.73 291.83 C 168.87 292.65 167.00 293.49 165.01 293.97 C 161.30 287.87 157.40 281.63 151.92 276.96 C 138.22 272.89 129.36 302.39 118.86 286.15 C 110.16 282.12 106.23 296.67 102.10 302.52 C 93.33 301.61 83.96 296.60 75.31 299.22 C 70.76 310.82 75.81 324.11 78.15 335.90 C 78.75 337.73 79.45 339.54 80.38 341.24 C 77.85 346.35 76.60 351.95 74.09 357.06 C 67.87 353.63 60.92 350.31 53.60 351.55 C 51.00 364.28 54.45 379.88 64.68 388.64 C 62.61 398.74 63.55 409.14 65.81 419.12 C 69.51 432.63 77.96 444.62 89.21 452.87 C 89.41 453.34 89.81 454.30 90.01 454.77 C 77.17 456.62 63.54 455.47 51.39 460.49 C 39.84 466.00 43.55 484.16 55.89 485.89 C 97.63 494.51 140.75 490.15 182.98 488.89 C 197.27 489.88 211.48 486.00 225.11 481.92 C 233.35 480.10 241.67 473.33 240.30 464.03 C 287.93 446.54 340.25 457.10 389.99 454.41 C 399.18 453.95 411.07 454.31 416.07 444.92 C 440.11 440.45 466.16 442.40 488.53 431.44 C 501.40 423.08 494.19 402.97 482.20 397.73 C 468.51 395.30 454.54 394.35 440.64 393.88 C 439.53 389.79 438.48 385.64 438.51 381.38 C 445.30 380.93 451.95 383.71 458.70 382.68 C 456.63 362.64 444.70 345.23 438.36 326.40 C 443.14 326.26 447.92 326.52 452.70 326.18 C 462.07 326.46 471.69 326.03 480.87 324.11 C 481.31 323.93 482.19 323.57 482.63 323.39 C 481.87 316.55 478.35 310.47 476.30 303.99 C 470.53 289.13 463.32 274.64 458.25 259.63 C 489.94 256.85 521.82 256.13 553.51 253.29 C 555.97 230.23 556.13 206.92 554.66 183.79 C 554.29 174.41 554.76 164.63 553.65 155.50 C 544.38 155.87 535.23 160.85 526.05 163.18 C 482.51 176.34 439.82 192.29 398.69 211.74 C 398.84 201.11 395.89 190.76 391.43 181.25 C 401.58 179.08 411.95 177.09 421.88 173.76 C 451.96 164.63 479.53 146.76 498.78 121.75 C 503.24 118.10 504.15 110.05 496.25 111.43 C 480.89 110.01 465.17 111.47 449.96 113.95 C 425.68 117.10 401.39 121.41 378.13 129.23 C 371.53 131.18 365.24 134.04 358.93 136.70 C 347.95 131.71 336.39 126.91 324.13 126.35 C 320.61 125.33 316.93 125.57 313.32 125.72 L 313.31 123.97 C 332.54 91.81 340.36 53.60 344.16 16.73 C 342.47 14.44 339.65 15.06 337.77 16.72 M 201.62 168.64 C 198.97 175.60 207.68 182.33 214.06 181.86 C 213.42 176.21 203.31 176.48 205.54 169.57 C 211.06 168.00 214.35 172.68 218.61 175.00 C 218.66 174.22 218.77 172.65 218.82 171.87 C 215.14 166.62 206.41 162.60 201.62 168.64 M 203.94 200.73 C 211.03 203.53 209.53 197.56 204.15 196.05 C 205.28 192.78 208.64 193.73 211.33 193.79 C 207.83 184.45 194.27 196.51 203.94 200.73 M 199.27 211.32 C 192.26 212.95 196.44 222.20 202.67 219.73 C 202.66 219.19 202.63 218.12 202.62 217.58 C 201.39 216.76 200.16 215.93 198.95 215.10 C 202.34 214.29 204.06 210.32 199.27 211.32 M 61.99 287.91 C 59.79 283.86 60.65 278.08 56.98 275.17 C 53.49 278.35 55.87 290.03 61.99 287.91 M 40.85 292.17 C 42.59 295.45 45.60 299.45 49.80 298.73 C 50.93 294.97 45.47 292.72 43.09 290.30 C 42.53 290.76 41.41 291.70 40.85 292.17 M 33.01 310.05 C 33.24 311.11 33.48 312.17 33.72 313.24 C 37.94 313.58 42.79 315.69 46.69 313.68 C 46.38 308.00 37.10 310.58 33.01 310.05 M 471.85 391.88 C 475.15 396.74 481.60 387.38 483.48 393.64 C 486.75 399.69 494.95 397.87 499.31 394.10 C 500.97 402.74 507.25 391.15 511.24 395.64 C 512.78 394.30 514.25 392.88 515.67 391.41 C 518.56 396.98 526.07 390.79 524.76 386.07 C 522.86 388.13 521.01 390.25 518.72 391.88 C 518.39 390.18 518.33 388.46 518.27 386.75 C 517.81 386.64 516.89 386.43 516.43 386.32 C 514.80 388.50 513.54 391.26 510.82 392.28 C 510.76 391.54 510.63 390.06 510.56 389.32 C 509.70 388.72 508.85 388.12 508.01 387.53 C 507.25 387.55 505.73 387.59 504.97 387.62 C 507.18 384.44 508.87 380.95 510.37 377.39 C 512.94 376.76 516.81 377.97 518.33 375.24 C 516.00 374.91 513.65 374.77 511.30 374.73 C 511.22 374.00 511.06 372.53 510.98 371.79 C 507.02 377.57 498.69 375.29 492.32 376.64 L 492.73 378.29 C 492.29 378.24 491.39 378.15 490.95 378.10 C 492.11 374.81 495.88 368.86 492.13 366.53 C 479.07 369.97 487.03 392.20 471.85 391.88 M 516.16 381.18 C 516.57 388.25 522.93 378.35 516.16 381.18 Z" />
<path fill="#ffffff" stroke="#ffffff" stroke-width="0.09375" opacity="1.00" d=" M 259.70 207.97 C 260.46 204.26 262.24 199.06 267.09 200.21 C 272.87 204.75 268.57 217.05 260.78 212.13 C 260.44 210.74 260.07 209.34 259.70 207.97 Z" />
<path fill="#ffffff" stroke="#ffffff" stroke-width="0.09375" opacity="1.00" d=" M 315.42 212.20 C 313.51 206.29 321.42 197.29 326.45 203.62 C 330.67 211.27 320.76 221.73 315.42 212.20 Z" />
<path fill="#ffffff" stroke="#ffffff" stroke-width="0.09375" opacity="1.00" d=" M 395.02 256.93 C 404.50 271.95 414.14 286.93 423.23 302.12 C 419.12 304.11 412.57 303.12 410.26 307.50 C 411.75 307.35 413.24 307.15 414.73 306.89 C 413.29 307.50 411.89 308.20 410.48 308.88 C 405.61 300.92 398.40 292.95 399.34 283.05 C 398.92 274.01 392.41 266.14 395.02 256.93 Z" />
</g>
<g id="#6c4142ff">
<path fill="#6c4142" stroke="#6c4142" stroke-width="0.09375" opacity="1.00" d=" M 337.77 16.72 C 339.65 15.06 342.47 14.44 344.16 16.73 C 340.36 53.60 332.54 91.81 313.31 123.97 C 312.61 124.84 311.86 125.68 311.16 126.54 C 315.48 126.29 319.81 126.33 324.13 126.35 C 336.39 126.91 347.95 131.71 358.93 136.70 C 365.24 134.04 371.53 131.18 378.13 129.23 C 401.39 121.41 425.68 117.10 449.96 113.95 C 465.35 112.46 480.75 110.73 496.25 111.43 C 504.15 110.05 503.24 118.10 498.78 121.75 C 479.53 146.76 451.96 164.63 421.88 173.76 C 411.95 177.09 401.58 179.08 391.43 181.25 C 395.89 190.76 398.84 201.11 398.69 211.74 C 439.82 192.29 482.51 176.34 526.05 163.18 C 535.23 160.85 544.38 155.87 553.65 155.50 C 554.76 164.63 554.29 174.41 554.66 183.79 C 553.89 202.54 557.20 223.90 552.95 240.99 C 551.86 229.39 554.09 214.58 552.66 201.73 C 552.73 186.92 551.90 172.14 551.63 157.34 C 500.54 173.34 449.63 190.18 401.06 212.87 C 400.44 213.09 399.21 213.53 398.60 213.75 C 399.02 219.30 398.86 224.87 398.83 230.44 C 398.12 238.41 397.25 246.38 395.43 254.19 C 406.37 270.02 418.18 285.72 425.75 303.45 C 422.14 304.80 418.39 305.71 414.73 306.89 C 413.24 307.15 411.75 307.35 410.26 307.50 C 412.57 303.12 419.12 304.11 423.23 302.12 C 414.14 286.93 404.50 271.95 395.02 256.93 C 392.41 266.14 398.92 274.01 399.34 283.05 C 398.40 292.95 405.61 300.92 410.48 308.88 C 421.77 323.36 417.94 346.38 432.90 357.69 C 434.33 353.37 438.25 353.81 441.60 355.60 C 442.07 355.33 442.99 354.79 443.46 354.53 C 444.80 355.05 446.12 355.68 447.44 356.32 C 440.78 359.69 433.34 353.57 431.35 364.38 C 421.25 371.43 428.17 388.21 419.22 397.73 C 425.99 398.99 432.83 399.95 439.67 400.87 C 438.35 394.06 435.93 387.23 436.33 380.24 C 442.17 376.77 449.53 381.29 456.04 380.16 C 454.23 370.87 450.83 361.85 447.20 353.13 C 443.31 344.46 438.84 335.99 435.92 326.93 C 434.64 324.13 438.24 324.02 440.02 323.96 C 453.39 323.61 466.81 323.79 480.12 322.06 C 473.39 300.04 462.35 279.53 454.99 257.79 C 487.06 254.83 519.25 253.45 551.38 251.42 C 551.52 248.75 551.57 246.08 551.68 243.42 C 551.99 243.34 552.60 243.19 552.91 243.12 C 554.17 246.28 552.68 249.93 553.51 253.29 C 521.82 256.13 489.94 256.85 458.25 259.63 C 463.32 274.64 470.53 289.13 476.30 303.99 C 478.35 310.47 481.87 316.55 482.63 323.39 C 482.19 323.57 481.31 323.93 480.87 324.11 C 471.53 325.57 462.06 325.07 452.70 326.18 C 447.92 326.52 443.14 326.26 438.36 326.40 C 444.70 345.23 456.63 362.64 458.70 382.68 C 451.95 383.71 445.30 380.93 438.51 381.38 C 438.48 385.64 439.53 389.79 440.64 393.88 C 441.48 397.04 441.96 400.29 442.30 403.54 C 433.97 403.26 425.92 400.13 417.53 400.51 C 413.67 407.12 408.45 413.20 401.67 416.92 C 401.53 416.44 401.27 415.47 401.14 414.99 C 384.77 421.52 366.60 416.64 349.56 416.15 C 328.74 411.87 305.10 406.52 286.31 419.94 C 288.26 423.57 290.09 428.17 286.90 431.73 C 275.19 447.23 254.33 454.51 235.38 452.45 C 228.74 451.76 226.08 444.05 229.73 438.86 C 236.02 429.11 244.98 420.35 255.96 416.17 C 253.70 413.96 251.72 411.48 249.47 409.27 C 231.02 385.79 250.91 357.64 257.95 333.68 C 258.34 334.27 259.12 335.46 259.51 336.05 C 254.75 349.99 250.13 364.03 245.41 377.94 C 240.70 396.31 252.63 412.98 267.04 422.68 C 262.96 421.70 259.51 419.27 256.29 416.70 C 249.21 421.98 241.38 426.85 235.79 434.04 C 232.81 437.47 229.98 441.46 230.18 446.24 C 231.48 441.91 233.85 437.97 237.33 435.05 C 239.62 433.51 242.01 431.87 244.91 431.96 C 238.11 435.12 224.54 451.86 240.01 450.41 C 241.46 442.81 248.96 433.56 257.22 434.80 C 250.63 438.12 243.36 442.86 242.02 450.72 C 258.26 449.26 277.10 444.19 285.49 428.92 C 288.27 419.91 279.19 421.37 273.76 422.54 C 281.24 418.61 289.44 415.85 297.14 412.21 C 319.80 403.30 342.91 415.87 365.99 415.01 C 384.94 418.13 408.97 415.66 417.78 395.87 C 411.40 384.40 412.40 367.99 423.62 359.91 C 423.17 353.19 422.04 346.14 419.03 340.16 C 407.33 333.31 397.77 318.18 404.76 304.90 C 403.67 299.81 400.29 295.80 397.74 291.40 C 385.29 312.79 352.40 317.57 332.49 304.54 C 327.45 299.77 324.58 293.17 319.06 288.81 C 317.98 286.97 317.37 284.91 316.89 282.84 C 319.03 281.90 321.19 281.03 323.38 280.19 C 323.33 276.04 324.52 272.02 326.99 268.68 C 335.05 271.48 339.37 262.34 345.52 259.10 C 339.91 240.82 357.58 216.59 377.55 222.77 C 391.31 227.41 394.07 246.13 385.94 256.96 C 388.20 259.09 390.21 261.48 391.91 264.09 C 396.48 236.80 400.30 207.44 389.19 181.16 C 378.17 182.40 366.74 183.47 355.88 180.66 C 384.16 181.30 412.95 176.84 438.69 164.82 C 446.11 153.21 450.50 138.73 448.94 124.91 C 447.25 115.96 436.02 118.09 429.51 119.26 C 399.34 125.22 366.91 130.51 342.23 150.17 C 339.60 151.49 337.34 158.11 335.22 156.15 C 339.30 147.66 348.37 143.50 355.44 137.92 C 326.40 121.80 288.51 126.91 262.35 145.28 C 273.49 132.29 291.87 128.39 308.19 126.36 C 319.03 113.22 324.55 96.69 329.70 80.69 C 324.39 75.85 324.55 64.21 315.99 61.57 C 307.82 60.22 300.75 65.87 293.91 69.47 L 293.09 68.80 C 291.88 67.81 290.45 67.09 289.35 65.97 C 304.60 48.89 319.89 31.31 337.77 16.72 M 347.57 257.74 C 358.72 252.37 372.02 250.19 383.81 254.85 C 393.46 245.69 387.15 226.44 374.04 224.37 C 357.21 223.08 342.66 241.83 347.57 257.74 M 340.12 265.60 C 341.19 266.60 342.33 267.53 343.71 268.07 C 344.15 267.04 344.58 266.00 345.00 264.96 C 348.57 262.65 351.70 265.31 353.07 268.70 C 360.66 267.74 360.65 277.10 363.74 281.69 C 358.94 281.22 360.16 273.88 356.92 271.03 C 355.36 271.25 353.82 271.49 352.28 271.75 C 350.66 265.82 345.22 265.06 344.28 271.86 C 341.58 271.33 340.23 268.81 338.18 267.25 C 334.84 267.89 334.57 271.81 333.03 273.49 C 328.15 267.89 323.55 276.79 326.68 281.05 C 324.51 282.29 322.14 283.08 319.80 283.90 C 321.18 288.87 326.07 291.47 327.70 296.32 C 335.11 307.96 352.70 304.07 361.63 296.29 C 358.54 305.04 347.78 304.39 340.79 307.13 C 357.53 312.11 378.43 309.90 391.57 297.59 C 404.60 283.92 393.45 260.23 377.07 255.19 C 363.74 252.25 350.88 258.27 340.12 265.60 M 416.32 334.66 C 418.14 324.82 410.85 314.77 406.34 306.02 C 401.90 316.52 406.48 329.16 416.32 334.66 M 425.45 353.05 C 425.63 356.71 425.57 360.43 426.38 364.04 C 434.32 364.09 426.72 356.65 425.45 353.05 M 419.68 391.06 C 423.28 382.14 424.49 372.45 423.47 362.92 C 416.08 369.44 412.52 383.26 419.68 391.06 Z" />
<path fill="#6c4142" stroke="#6c4142" stroke-width="0.09375" opacity="1.00" d=" M 288.51 67.46 C 289.84 68.47 291.41 68.99 293.09 68.80 L 293.49 69.79 C 290.39 71.42 287.26 73.21 285.04 76.00 C 267.01 99.53 252.78 127.72 252.70 157.96 C 253.90 156.62 255.08 155.26 256.26 153.90 C 256.51 154.34 257.01 155.21 257.26 155.65 C 245.43 173.72 241.45 195.88 240.58 217.15 C 253.65 229.42 254.30 250.83 256.08 267.84 C 255.56 267.77 254.51 267.61 253.99 267.53 C 251.72 264.01 247.67 262.34 244.96 259.23 C 239.96 259.07 234.95 259.48 230.03 260.33 C 231.14 262.26 232.22 264.21 233.22 266.21 C 238.27 264.19 241.05 270.95 236.54 273.29 C 236.58 271.61 236.62 269.94 236.68 268.26 C 235.38 268.39 234.08 268.53 232.79 268.67 C 231.50 265.63 229.10 263.34 226.85 261.01 C 223.36 263.78 219.21 264.60 215.03 262.76 C 214.64 266.86 210.68 268.46 207.35 269.73 C 209.22 275.31 203.32 281.66 208.68 286.30 C 225.16 300.26 246.68 305.65 267.39 309.74 C 265.96 310.20 264.46 310.44 262.96 310.29 C 262.18 310.20 261.40 310.09 260.62 309.99 C 241.97 308.35 225.45 299.31 209.17 290.95 C 202.58 285.18 206.23 275.49 205.55 267.86 C 214.49 256.89 227.99 259.91 240.95 256.55 C 241.24 256.20 241.84 255.49 242.13 255.14 C 245.25 258.39 248.89 261.70 253.63 261.98 C 251.98 247.33 249.97 231.24 241.01 219.10 C 232.80 228.93 233.54 245.37 242.23 254.67 C 241.64 254.71 240.44 254.78 239.84 254.81 C 237.16 252.48 234.59 249.49 234.32 245.79 C 229.91 233.96 236.68 222.58 237.71 210.89 C 238.15 198.09 241.82 186.05 245.96 174.04 C 246.57 168.69 250.92 164.52 250.65 159.01 C 250.32 136.25 258.17 114.00 269.72 94.62 C 275.51 85.21 281.55 75.99 288.51 67.46 Z" />
<path fill="#6c4142" stroke="#6c4142" stroke-width="0.09375" opacity="1.00" d=" M 258.49 194.72 C 265.36 190.26 270.98 198.71 271.51 204.85 C 273.12 214.25 273.00 231.13 260.92 232.71 C 244.27 228.45 246.30 203.11 258.49 194.72 M 259.70 207.97 C 260.07 209.34 260.44 210.74 260.78 212.13 C 268.57 217.05 272.87 204.75 267.09 200.21 C 262.24 199.06 260.46 204.26 259.70 207.97 M 255.21 221.04 C 249.77 224.94 256.86 230.17 261.17 230.52 C 265.52 226.26 259.58 221.42 255.21 221.04 Z" />
<path fill="#6c4142" stroke="#6c4142" stroke-width="0.09375" opacity="1.00" d=" M 325.11 195.17 C 341.71 190.10 355.87 214.20 346.21 227.20 C 338.28 235.47 323.63 235.63 315.80 227.19 C 307.65 216.77 313.15 199.99 325.11 195.17 M 315.42 212.20 C 320.76 221.73 330.67 211.27 326.45 203.62 C 321.42 197.29 313.51 206.29 315.42 212.20 M 338.36 218.43 C 332.50 218.41 323.91 229.16 334.00 229.34 C 341.53 231.44 349.09 217.19 338.36 218.43 Z" />
<path fill="#6c4142" stroke="#6c4142" stroke-width="0.09375" opacity="1.00" d=" M 283.85 233.65 C 279.34 227.04 293.27 233.69 283.85 233.65 Z" />
<path fill="#6c4142" stroke="#6c4142" stroke-width="0.09375" opacity="1.00" d=" M 273.54 244.09 C 275.20 245.75 277.48 249.79 279.84 246.56 C 280.68 253.83 276.33 264.96 285.51 268.44 C 292.22 275.86 307.91 271.67 317.96 270.40 C 325.38 270.10 323.60 261.07 320.35 257.00 C 320.09 255.38 319.83 253.76 319.57 252.15 C 306.12 255.08 292.67 245.65 280.26 248.17 C 283.68 238.41 293.27 252.84 300.03 247.31 C 307.19 251.51 314.75 250.47 322.63 251.38 C 322.27 252.13 321.91 252.88 321.56 253.64 C 324.26 259.15 328.06 269.37 319.85 271.94 C 309.18 274.66 297.64 275.74 286.86 273.17 C 277.23 269.71 276.92 258.34 277.69 249.79 C 274.76 249.94 272.92 246.73 273.54 244.09 Z" />
<path fill="#6c4142" stroke="#6c4142" stroke-width="0.09375" opacity="1.00" d=" M 118.86 286.15 C 129.36 302.39 138.22 272.89 151.92 276.96 C 157.40 281.63 161.30 287.87 165.01 293.97 C 167.00 293.49 168.87 292.65 170.73 291.83 C 181.31 285.81 192.49 290.58 191.06 303.74 C 201.62 301.97 212.83 301.31 223.32 303.77 C 226.07 321.68 203.46 335.96 210.69 353.61 C 215.21 351.33 220.95 349.54 225.69 352.22 C 225.73 352.60 225.81 353.37 225.85 353.76 C 225.29 354.77 224.67 355.76 224.04 356.74 C 225.49 351.09 218.90 353.04 215.94 353.94 C 203.04 357.47 186.69 368.53 192.59 384.01 C 195.72 389.81 202.82 392.57 208.67 388.86 C 217.93 383.34 220.60 371.84 223.07 362.10 C 223.60 359.99 223.96 357.78 225.16 355.92 C 225.92 359.32 224.96 362.73 224.45 366.08 C 222.88 372.71 220.04 378.97 216.65 384.85 C 220.30 396.79 221.36 409.59 219.72 421.96 C 218.10 435.55 211.07 448.55 199.52 456.19 C 200.93 471.84 180.34 478.20 172.87 464.37 C 155.16 466.90 137.19 470.81 119.32 467.11 C 111.77 481.24 89.69 487.62 76.38 478.66 C 75.37 468.07 84.83 459.70 93.84 456.03 C 92.37 454.88 90.85 453.78 89.21 452.87 C 77.96 444.62 69.51 432.63 65.81 419.12 C 63.55 409.14 62.61 398.74 64.68 388.64 C 54.45 379.88 51.00 364.28 53.60 351.55 C 60.92 350.31 67.87 353.63 74.09 357.06 C 76.60 351.95 77.85 346.35 80.38 341.24 C 79.45 339.54 78.75 337.73 78.15 335.90 C 75.81 324.11 70.76 310.82 75.31 299.22 C 83.96 296.60 93.33 301.61 102.10 302.52 C 106.23 296.67 110.16 282.12 118.86 286.15 M 118.28 306.07 C 118.07 307.95 117.74 309.82 117.33 311.67 C 103.92 309.27 91.10 299.74 76.90 300.94 C 74.12 313.00 78.26 325.49 80.77 337.32 C 81.18 338.41 82.01 338.86 83.26 338.68 C 83.52 339.34 84.03 340.66 84.29 341.32 L 84.39 342.19 C 78.59 350.46 75.48 359.32 82.95 367.83 C 87.03 364.02 90.96 360.00 95.05 356.17 C 102.61 359.40 104.97 368.85 110.02 374.91 C 113.93 369.84 119.28 353.25 126.31 363.08 C 130.67 359.12 136.13 358.31 140.03 363.49 C 150.13 353.11 155.09 370.85 159.41 377.87 C 163.37 371.56 167.91 365.53 173.37 360.47 C 178.94 361.53 182.42 367.25 186.97 370.41 C 188.00 366.48 188.56 361.04 192.99 359.49 C 194.03 360.38 195.07 361.28 196.10 362.21 C 199.02 360.20 201.44 357.25 205.08 356.53 C 205.98 355.69 206.88 354.85 207.79 354.03 C 207.48 350.25 205.91 346.77 205.12 343.10 C 212.57 331.86 218.19 318.77 220.99 305.82 C 204.46 302.42 186.79 307.10 171.60 313.81 C 168.25 300.51 159.60 288.34 150.26 278.31 C 136.52 283.20 127.14 295.12 118.28 306.07 M 111.69 290.73 C 110.25 295.22 99.28 302.92 107.03 305.44 C 111.44 302.75 116.15 300.59 121.16 299.33 C 122.56 297.65 123.90 295.91 125.07 294.06 C 121.07 291.26 115.12 282.94 111.69 290.73 M 166.77 295.93 C 167.00 296.50 167.47 297.66 167.70 298.24 C 172.19 300.35 176.59 303.04 179.95 306.72 C 183.01 306.76 185.79 305.26 188.72 304.57 C 190.99 289.38 176.35 289.96 166.77 295.93 M 169.91 301.82 C 170.84 304.60 172.41 307.11 173.22 309.94 C 182.16 309.75 174.05 303.11 169.91 301.82 M 109.33 306.30 C 110.96 306.91 112.47 307.77 113.94 308.73 C 115.84 306.75 118.31 305.08 119.03 302.27 C 115.59 303.07 112.52 304.86 109.33 306.30 M 54.75 353.42 C 54.53 364.49 55.88 378.71 65.26 385.68 C 65.97 386.84 66.97 387.54 68.25 387.77 C 72.40 380.23 75.39 371.75 74.89 363.04 C 71.71 355.41 62.19 353.54 54.75 353.42 M 66.73 389.85 C 64.95 399.48 65.65 409.69 68.96 418.90 C 70.42 421.07 71.72 418.25 72.29 417.00 C 73.46 413.20 74.58 406.87 79.68 407.11 C 88.45 416.39 95.42 427.30 101.73 438.34 C 102.61 443.98 98.17 448.89 96.29 453.79 C 117.93 468.44 146.92 465.63 171.61 462.20 C 170.13 458.68 168.37 455.24 167.67 451.46 C 166.56 445.52 166.36 439.48 167.08 433.48 C 166.16 433.97 165.46 434.70 165.00 435.65 C 163.74 437.87 162.03 440.03 162.06 442.73 C 162.82 443.15 164.33 444.00 165.09 444.42 C 164.59 444.66 163.60 445.15 163.10 445.39 C 162.45 445.10 161.16 444.51 160.51 444.21 C 158.84 438.55 163.87 434.16 167.34 430.44 C 167.81 428.34 168.29 426.25 168.75 424.15 C 161.40 430.42 146.71 448.72 165.25 449.30 C 164.16 449.39 163.21 449.73 162.38 450.32 L 162.33 450.09 C 155.15 451.46 150.54 444.84 154.80 438.80 C 160.51 427.51 170.65 417.94 182.98 414.55 C 189.52 412.85 188.55 422.09 188.59 426.11 C 194.01 432.92 198.15 441.77 197.53 450.61 C 205.61 446.59 211.84 437.96 214.09 429.01 C 218.06 416.58 217.88 399.66 212.16 389.17 C 206.47 394.31 196.09 394.14 191.98 387.12 C 186.87 379.68 191.73 371.12 194.54 363.84 C 193.76 363.27 192.98 362.71 192.21 362.16 C 189.78 365.76 189.87 370.16 188.38 374.10 C 183.23 370.11 179.04 363.30 171.87 363.26 C 167.07 369.03 162.80 375.25 159.03 381.73 C 154.44 375.68 152.79 365.57 145.99 362.29 C 141.78 367.17 137.00 364.89 132.94 361.26 C 130.31 364.13 125.36 367.89 123.07 362.60 C 122.57 362.42 121.57 362.07 121.08 361.89 C 116.95 367.32 113.45 373.18 109.87 378.96 C 106.98 371.77 100.33 367.55 97.05 360.44 C 90.34 360.19 87.73 368.53 82.43 370.66 C 79.58 367.22 78.29 362.86 76.44 358.88 C 77.09 368.59 76.53 384.77 66.73 389.85 M 70.80 421.68 C 71.03 424.43 69.95 428.98 73.41 430.03 C 73.45 426.29 76.18 423.58 77.30 420.20 C 77.91 420.22 79.13 420.24 79.73 420.26 C 86.12 428.33 97.69 437.85 91.26 449.01 C 95.44 456.46 99.67 442.85 99.64 438.99 C 93.79 428.36 86.75 418.30 78.75 409.16 C 74.51 412.29 74.53 418.17 70.80 421.68 M 186.85 424.14 C 186.67 421.51 186.48 418.89 186.34 416.27 C 174.68 415.69 180.60 420.63 186.85 424.14 M 175.42 420.85 C 175.67 427.83 177.43 434.65 178.45 441.55 C 178.02 441.52 177.16 441.46 176.73 441.43 C 174.76 435.44 174.01 429.12 173.43 422.87 C 164.68 434.85 168.85 452.81 176.10 464.88 C 181.43 473.43 196.75 469.85 195.66 459.11 C 195.76 444.85 192.16 423.81 175.42 420.85 M 78.35 434.41 C 80.74 439.77 84.70 444.20 89.14 447.97 C 95.34 437.97 83.86 429.82 78.98 421.98 C 75.95 425.43 75.87 430.62 78.35 434.41 M 78.89 478.02 C 83.46 475.80 86.13 469.89 91.74 469.27 C 88.77 473.05 84.36 475.49 81.75 479.56 C 94.75 482.52 109.82 477.85 117.67 466.76 C 112.38 464.68 106.52 464.29 101.45 461.69 C 91.97 452.57 77.90 468.14 78.89 478.02 Z" />
<path fill="#6c4142" stroke="#6c4142" stroke-width="0.09375" opacity="1.00" d=" M 237.16 292.07 C 238.46 287.76 236.80 281.91 237.96 278.43 C 240.21 281.55 241.69 290.13 237.16 292.07 Z" />
<path fill="#6c4142" stroke="#6c4142" stroke-width="0.09375" opacity="1.00" d=" M 155.65 322.54 C 161.64 317.82 168.93 326.85 167.63 332.75 C 164.97 324.32 154.76 319.76 153.15 331.43 C 149.60 329.35 153.51 324.53 155.65 322.54 Z" />
<path fill="#6c4142" stroke="#6c4142" stroke-width="0.09375" opacity="1.00" d=" M 112.30 330.86 C 112.41 319.77 127.92 319.47 127.84 330.80 C 127.37 330.63 126.42 330.29 125.95 330.12 C 124.81 327.25 122.82 324.68 119.92 323.42 C 118.30 324.50 116.88 325.85 115.67 327.38 C 115.08 328.98 114.28 330.79 112.30 330.86 Z" />
<path fill="#6c4142" stroke="#6c4142" stroke-width="0.09375" opacity="1.00" d=" M 356.01 344.08 C 361.63 334.27 376.99 324.95 387.14 332.71 C 376.19 329.79 363.26 334.91 358.02 345.10 C 370.88 353.34 384.21 365.82 387.48 381.01 C 379.87 367.36 368.44 356.02 357.05 345.48 C 356.45 345.82 355.25 346.51 354.65 346.86 C 352.07 355.74 357.68 364.31 361.89 371.78 C 353.95 367.48 350.21 355.03 352.49 346.30 C 349.79 346.23 347.92 348.68 347.93 351.21 C 345.74 360.43 351.30 368.58 355.96 375.90 C 351.19 374.36 349.02 369.18 347.30 364.88 C 349.10 383.18 359.49 402.58 376.97 410.01 C 386.84 412.42 389.68 401.44 392.57 394.99 C 393.99 403.77 387.09 415.17 377.03 412.28 C 354.63 405.65 346.14 379.03 345.18 358.01 C 343.70 351.21 347.70 341.58 356.01 344.08 Z" />
<path fill="#6c4142" stroke="#6c4142" stroke-width="0.09375" opacity="1.00" d=" M 143.81 335.62 C 149.41 340.44 145.14 355.82 135.89 354.04 C 130.98 351.90 128.82 346.42 127.66 341.55 C 129.18 342.13 130.69 342.71 132.21 343.31 C 128.11 352.79 145.81 355.41 143.85 343.93 C 143.46 343.77 142.68 343.47 142.29 343.32 C 143.92 341.07 143.74 338.25 143.81 335.62 Z" />
<path fill="#6c4142" stroke="#6c4142" stroke-width="0.09375" opacity="1.00" d=" M 164.98 404.20 C 154.47 394.25 167.75 381.81 178.06 379.51 C 181.54 383.25 182.70 388.32 184.31 393.01 C 185.26 400.65 176.23 403.10 171.09 406.39 C 169.01 405.79 166.93 405.13 164.98 404.20 M 168.36 403.76 C 180.66 404.34 185.56 390.90 177.75 382.06 C 168.14 383.83 156.61 396.38 168.36 403.76 Z" />
<path fill="#6c4142" stroke="#6c4142" stroke-width="0.09375" opacity="1.00" d=" M 110.73 389.82 C 114.47 388.06 118.43 390.59 122.26 390.81 C 131.05 393.74 141.06 394.65 148.55 400.47 C 148.91 403.42 148.16 406.28 147.25 409.05 C 146.76 410.33 146.31 411.63 145.80 412.91 C 142.11 421.29 138.21 435.84 126.62 434.25 C 114.16 427.38 111.42 411.71 108.66 398.96 C 108.79 396.11 106.33 390.08 110.77 390.03 C 110.41 393.43 110.52 396.87 111.29 400.22 C 113.79 412.02 116.58 429.96 130.58 432.59 C 136.29 430.72 138.69 424.58 141.02 419.59 C 143.07 413.45 146.59 407.53 146.48 400.89 C 136.75 396.74 126.51 393.82 116.15 391.74 C 114.33 391.11 112.30 391.06 110.73 389.82 Z" />
<path fill="#6c4142" stroke="#6c4142" stroke-width="0.09375" opacity="1.00" d=" M 167.48 396.07 C 168.24 392.00 173.06 388.34 177.39 389.51 C 182.93 396.27 170.23 404.49 167.48 396.07 M 169.12 396.09 C 171.29 399.13 174.46 396.74 176.65 395.16 C 176.38 393.80 176.11 392.44 175.81 391.08 C 172.73 391.25 171.00 394.04 169.12 396.09 Z" />
<path fill="#6c4142" stroke="#6c4142" stroke-width="0.09375" opacity="1.00" d=" M 117.61 400.80 C 124.59 398.46 133.28 400.75 138.63 405.71 C 138.27 413.30 132.55 419.14 128.05 424.78 C 121.50 418.84 117.77 409.55 117.61 400.80 M 119.55 401.71 C 119.71 409.05 123.53 415.84 127.31 421.97 C 131.58 418.03 137.92 411.07 135.24 404.93 C 130.17 403.17 124.98 401.62 119.55 401.71 Z" />
</g>
<g id="#fff586ff">
<path fill="#fff586" stroke="#fff586" stroke-width="0.09375" opacity="1.00" d=" M 293.91 69.47 C 300.75 65.87 307.82 60.22 315.99 61.57 C 324.55 64.21 324.39 75.85 329.70 80.69 C 324.55 96.69 319.03 113.22 308.19 126.36 C 291.87 128.39 273.49 132.29 262.35 145.28 C 288.51 126.91 326.40 121.80 355.44 137.92 C 348.37 143.50 339.30 147.66 335.22 156.15 C 337.34 158.11 339.60 151.49 342.23 150.17 C 366.91 130.51 399.34 125.22 429.51 119.26 C 436.02 118.09 447.25 115.96 448.94 124.91 C 450.50 138.73 446.11 153.21 438.69 164.82 C 412.95 176.84 384.16 181.30 355.88 180.66 C 366.74 183.47 378.17 182.40 389.19 181.16 C 400.30 207.44 396.48 236.80 391.91 264.09 C 390.21 261.48 388.20 259.09 385.94 256.96 C 394.07 246.13 391.31 227.41 377.55 222.77 C 357.58 216.59 339.91 240.82 345.52 259.10 C 339.37 262.34 335.05 271.48 326.99 268.68 C 324.52 272.02 323.33 276.04 323.38 280.19 C 321.19 281.03 319.03 281.90 316.89 282.84 C 305.77 283.09 294.86 280.91 283.86 280.01 C 287.70 292.44 309.50 300.62 319.06 288.81 C 324.58 293.17 327.45 299.77 332.49 304.54 C 352.40 317.57 385.29 312.79 397.74 291.40 C 400.29 295.80 403.67 299.81 404.76 304.90 C 397.77 318.18 407.33 333.31 419.03 340.16 C 422.04 346.14 423.17 353.19 423.62 359.91 C 412.40 367.99 411.40 384.40 417.78 395.87 C 408.97 415.66 384.94 418.13 365.99 415.01 C 342.91 415.87 319.80 403.30 297.14 412.21 C 289.44 415.85 281.24 418.61 273.76 422.54 C 279.19 421.37 288.27 419.91 285.49 428.92 C 277.10 444.19 258.26 449.26 242.02 450.72 C 243.36 442.86 250.63 438.12 257.22 434.80 C 248.96 433.56 241.46 442.81 240.01 450.41 C 224.54 451.86 238.11 435.12 244.91 431.96 C 242.01 431.87 239.62 433.51 237.33 435.05 C 236.94 434.80 236.18 434.29 235.79 434.04 C 241.38 426.85 249.21 421.98 256.29 416.70 C 259.51 419.27 262.96 421.70 267.04 422.68 C 252.63 412.98 240.70 396.31 245.41 377.94 C 250.13 364.03 254.75 349.99 259.51 336.05 C 262.01 327.71 263.10 318.99 262.96 310.29 C 264.46 310.44 265.96 310.20 267.39 309.74 C 246.68 305.65 225.16 300.26 208.68 286.30 C 203.32 281.66 209.22 275.31 207.35 269.73 C 210.68 268.46 214.64 266.86 215.03 262.76 C 219.21 264.60 223.36 263.78 226.85 261.01 C 229.10 263.34 231.50 265.63 232.79 268.67 C 234.08 268.53 235.38 268.39 236.68 268.26 C 236.62 269.94 236.58 271.61 236.54 273.29 C 241.05 270.95 238.27 264.19 233.22 266.21 C 232.22 264.21 231.14 262.26 230.03 260.33 C 234.95 259.48 239.96 259.07 244.96 259.23 C 247.67 262.34 251.72 264.01 253.99 267.53 C 254.51 267.61 255.56 267.77 256.08 267.84 C 254.30 250.83 253.65 229.42 240.58 217.15 C 241.45 195.88 245.43 173.72 257.26 155.65 C 257.01 155.21 256.51 154.34 256.26 153.90 C 255.08 155.26 253.90 156.62 252.70 157.96 C 252.78 127.72 267.01 99.53 285.04 76.00 C 287.26 73.21 290.39 71.42 293.49 69.79 L 293.09 68.80 L 293.91 69.47 M 258.49 194.72 C 246.30 203.11 244.27 228.45 260.92 232.71 C 273.00 231.13 273.12 214.25 271.51 204.85 C 270.98 198.71 265.36 190.26 258.49 194.72 M 325.11 195.17 C 313.15 199.99 307.65 216.77 315.80 227.19 C 323.63 235.63 338.28 235.47 346.21 227.20 C 355.87 214.20 341.71 190.10 325.11 195.17 M 283.85 233.65 C 293.27 233.69 279.34 227.04 283.85 233.65 M 273.54 244.09 C 272.92 246.73 274.76 249.94 277.69 249.79 C 276.92 258.34 277.23 269.71 286.86 273.17 C 297.64 275.74 309.18 274.66 319.85 271.94 C 328.06 269.37 324.26 259.15 321.56 253.64 C 321.91 252.88 322.27 252.13 322.63 251.38 C 314.75 250.47 307.19 251.51 300.03 247.31 C 293.27 252.84 283.68 238.41 280.26 248.17 L 279.84 246.56 C 277.48 249.79 275.20 245.75 273.54 244.09 M 237.16 292.07 C 241.69 290.13 240.21 281.55 237.96 278.43 C 236.80 281.91 238.46 287.76 237.16 292.07 M 356.01 344.08 C 347.70 341.58 343.70 351.21 345.18 358.01 C 346.14 379.03 354.63 405.65 377.03 412.28 C 387.09 415.17 393.99 403.77 392.57 394.99 C 389.68 401.44 386.84 412.42 376.97 410.01 C 359.49 402.58 349.10 383.18 347.30 364.88 C 349.02 369.18 351.19 374.36 355.96 375.90 C 351.30 368.58 345.74 360.43 347.93 351.21 C 347.92 348.68 349.79 346.23 352.49 346.30 C 350.21 355.03 353.95 367.48 361.89 371.78 C 357.68 364.31 352.07 355.74 354.65 346.86 C 355.25 346.51 356.45 345.82 357.05 345.48 C 368.44 356.02 379.87 367.36 387.48 381.01 C 384.21 365.82 370.88 353.34 358.02 345.10 C 363.26 334.91 376.19 329.79 387.14 332.71 C 376.99 324.95 361.63 334.27 356.01 344.08 Z" />
<path fill="#fff586" stroke="#fff586" stroke-width="0.09375" opacity="1.00" d=" M 401.06 212.87 C 449.63 190.18 500.54 173.34 551.63 157.34 C 551.90 172.14 552.73 186.92 552.66 201.73 C 551.91 215.62 553.05 229.56 551.68 243.42 C 551.57 246.08 551.52 248.75 551.38 251.42 C 519.25 253.45 487.06 254.83 454.99 257.79 C 462.35 279.53 473.39 300.04 480.12 322.06 C 466.81 323.79 453.39 323.61 440.02 323.96 C 438.24 324.02 434.64 324.13 435.92 326.93 C 438.84 335.99 443.31 344.46 447.20 353.13 L 447.95 354.77 C 446.44 354.65 444.96 354.50 443.46 354.53 C 442.99 354.79 442.07 355.33 441.60 355.60 C 438.25 353.81 434.33 353.37 432.90 357.69 C 417.94 346.38 421.77 323.36 410.48 308.88 C 411.89 308.20 413.29 307.50 414.73 306.89 C 418.39 305.71 422.14 304.80 425.75 303.45 C 418.18 285.72 406.37 270.02 395.43 254.19 C 397.25 246.38 398.12 238.41 398.83 230.44 C 400.04 225.29 399.74 219.96 399.20 214.75 C 399.66 214.28 400.59 213.34 401.06 212.87 Z" />
<path fill="#fff586" stroke="#fff586" stroke-width="0.09375" opacity="1.00" d=" M 340.12 265.60 C 350.88 258.27 363.74 252.25 377.07 255.19 C 393.45 260.23 404.60 283.92 391.57 297.59 C 378.43 309.90 357.53 312.11 340.79 307.13 C 347.78 304.39 358.54 305.04 361.63 296.29 C 352.70 304.07 335.11 307.96 327.70 296.32 C 326.07 291.47 321.18 288.87 319.80 283.90 C 322.14 283.08 324.51 282.29 326.68 281.05 C 323.55 276.79 328.15 267.89 333.03 273.49 C 334.57 271.81 334.84 267.89 338.18 267.25 C 340.23 268.81 341.58 271.33 344.28 271.86 C 345.22 265.06 350.66 265.82 352.28 271.75 C 353.82 271.49 355.36 271.25 356.92 271.03 C 360.16 273.88 358.94 281.22 363.74 281.69 C 360.65 277.10 360.66 267.74 353.07 268.70 C 351.70 265.31 348.57 262.65 345.00 264.96 C 344.58 266.00 344.15 267.04 343.71 268.07 C 342.33 267.53 341.19 266.60 340.12 265.60 Z" />
</g>
<g id="#be9f8dff">
<path fill="#be9f8d" stroke="#be9f8d" stroke-width="0.09375" opacity="1.00" d=" M 449.96 113.95 C 465.17 111.47 480.89 110.01 496.25 111.43 C 480.75 110.73 465.35 112.46 449.96 113.95 Z" />
<path fill="#be9f8d" stroke="#be9f8d" stroke-width="0.09375" opacity="1.00" d=" M 311.16 126.54 C 311.86 125.68 312.61 124.84 313.31 123.97 L 313.32 125.72 C 316.93 125.57 320.61 125.33 324.13 126.35 C 319.81 126.33 315.48 126.29 311.16 126.54 Z" />
<path fill="#be9f8d" stroke="#be9f8d" stroke-width="0.09375" opacity="1.00" d=" M 552.95 240.99 C 557.20 223.90 553.89 202.54 554.66 183.79 C 556.13 206.92 555.97 230.23 553.51 253.29 C 552.68 249.93 554.17 246.28 552.91 243.12 C 552.60 243.19 551.99 243.34 551.68 243.42 C 553.05 229.56 551.91 215.62 552.66 201.73 C 554.09 214.58 551.86 229.39 552.95 240.99 Z" />
<path fill="#be9f8d" stroke="#be9f8d" stroke-width="0.09375" opacity="1.00" d=" M 452.70 326.18 C 462.06 325.07 471.53 325.57 480.87 324.11 C 471.69 326.03 462.07 326.46 452.70 326.18 Z" />
<path fill="#be9f8d" stroke="#be9f8d" stroke-width="0.09375" opacity="1.00" d=" M 80.77 337.32 C 81.55 337.35 83.12 337.41 83.91 337.44 C 84.03 338.73 84.15 340.02 84.29 341.32 C 84.03 340.66 83.52 339.34 83.26 338.68 C 82.01 338.86 81.18 338.41 80.77 337.32 Z" />
<path fill="#be9f8d" stroke="#be9f8d" stroke-width="0.09375" opacity="1.00" d=" M 215.94 353.94 C 218.90 353.04 225.49 351.09 224.04 356.74 C 224.67 355.76 225.29 354.77 225.85 353.76 C 227.38 357.68 225.70 362.22 224.45 366.08 C 224.96 362.73 225.92 359.32 225.16 355.92 C 223.96 357.78 223.60 359.99 223.07 362.10 C 224.33 356.13 222.87 351.38 215.94 353.94 Z" />
<path fill="#be9f8d" stroke="#be9f8d" stroke-width="0.09375" opacity="1.00" d=" M 471.85 391.88 C 487.03 392.20 479.07 369.97 492.13 366.53 C 495.88 368.86 492.11 374.81 490.95 378.10 C 488.82 383.39 479.96 389.65 487.32 394.67 C 497.60 397.66 504.41 385.50 507.79 377.50 C 502.76 377.56 497.77 378.88 492.73 378.29 L 492.32 376.64 C 498.69 375.29 507.02 377.57 510.98 371.79 C 511.06 372.53 511.22 374.00 511.30 374.73 C 513.65 374.77 516.00 374.91 518.33 375.24 C 516.81 377.97 512.94 376.76 510.37 377.39 C 508.87 380.95 507.18 384.44 504.97 387.62 C 505.73 387.59 507.25 387.55 508.01 387.53 C 508.85 388.12 509.70 388.72 510.56 389.32 C 510.63 390.06 510.76 391.54 510.82 392.28 C 513.54 391.26 514.80 388.50 516.43 386.32 C 516.89 386.43 517.81 386.64 518.27 386.75 C 518.33 388.46 518.39 390.18 518.72 391.88 C 521.01 390.25 522.86 388.13 524.76 386.07 C 526.07 390.79 518.56 396.98 515.67 391.41 C 514.25 392.88 512.78 394.30 511.24 395.64 C 507.25 391.15 500.97 402.74 499.31 394.10 C 494.95 397.87 486.75 399.69 483.48 393.64 C 481.60 387.38 475.15 396.74 471.85 391.88 M 484.06 384.52 C 488.14 380.34 490.43 374.63 491.79 369.03 C 486.58 372.00 484.47 378.82 484.06 384.52 M 501.68 395.47 C 511.75 392.33 504.04 385.98 501.68 395.47 Z" />
<path fill="#be9f8d" stroke="#be9f8d" stroke-width="0.09375" opacity="1.00" d=" M 491.32 386.05 C 492.17 386.68 493.03 387.32 493.89 387.96 C 495.04 387.00 496.31 386.06 497.91 386.29 C 497.03 390.90 489.97 391.97 491.32 386.05 Z" />
<path fill="#be9f8d" stroke="#be9f8d" stroke-width="0.09375" opacity="1.00" d=" M 440.64 393.88 C 454.54 394.35 468.51 395.30 482.20 397.73 C 494.19 402.97 501.40 423.08 488.53 431.44 C 466.16 442.40 440.11 440.45 416.07 444.92 C 411.07 454.31 399.18 453.95 389.99 454.41 C 340.25 457.10 287.93 446.54 240.30 464.03 C 241.67 473.33 233.35 480.10 225.11 481.92 C 211.48 486.00 197.27 489.88 182.98 488.89 C 140.75 490.15 97.63 494.51 55.89 485.89 C 43.55 484.16 39.84 466.00 51.39 460.49 C 63.54 455.47 77.17 456.62 90.01 454.77 C 89.81 454.30 89.41 453.34 89.21 452.87 C 90.85 453.78 92.37 454.88 93.84 456.03 C 84.83 459.70 75.37 468.07 76.38 478.66 C 89.69 487.62 111.77 481.24 119.32 467.11 C 137.19 470.81 155.16 466.90 172.87 464.37 C 180.34 478.20 200.93 471.84 199.52 456.19 C 211.07 448.55 218.10 435.55 219.72 421.96 C 228.34 415.15 239.54 413.36 249.47 409.27 C 251.72 411.48 253.70 413.96 255.96 416.17 C 244.98 420.35 236.02 429.11 229.73 438.86 C 226.08 444.05 228.74 451.76 235.38 452.45 C 254.33 454.51 275.19 447.23 286.90 431.73 C 290.09 428.17 288.26 423.57 286.31 419.94 C 305.10 406.52 328.74 411.87 349.56 416.15 C 366.60 416.64 384.77 421.52 401.14 414.99 C 401.27 415.47 401.53 416.44 401.67 416.92 C 408.45 413.20 413.67 407.12 417.53 400.51 C 425.92 400.13 433.97 403.26 442.30 403.54 C 441.96 400.29 441.48 397.04 440.64 393.88 Z" />
</g>
<g id="#a1c2d6ff">
<path fill="#a1c2d6" stroke="#a1c2d6" stroke-width="0.09375" opacity="1.00" d=" M 201.62 168.64 C 206.41 162.60 215.14 166.62 218.82 171.87 C 218.77 172.65 218.66 174.22 218.61 175.00 C 214.35 172.68 211.06 168.00 205.54 169.57 C 203.31 176.48 213.42 176.21 214.06 181.86 C 207.68 182.33 198.97 175.60 201.62 168.64 Z" />
<path fill="#a1c2d6" stroke="#a1c2d6" stroke-width="0.09375" opacity="1.00" d=" M 203.94 200.73 C 194.27 196.51 207.83 184.45 211.33 193.79 C 208.64 193.73 205.28 192.78 204.15 196.05 C 209.53 197.56 211.03 203.53 203.94 200.73 Z" />
<path fill="#a1c2d6" stroke="#a1c2d6" stroke-width="0.09375" opacity="1.00" d=" M 199.27 211.32 C 204.06 210.32 202.34 214.29 198.95 215.10 C 200.16 215.93 201.39 216.76 202.62 217.58 C 202.63 218.12 202.66 219.19 202.67 219.73 C 196.44 222.20 192.26 212.95 199.27 211.32 Z" />
</g>
<g id="#bfa96bff">
<path fill="#bfa96b" stroke="#bfa96b" stroke-width="0.09375" opacity="1.00" d=" M 398.60 213.75 C 399.21 213.53 400.44 213.09 401.06 212.87 C 400.59 213.34 399.66 214.28 399.20 214.75 C 399.74 219.96 400.04 225.29 398.83 230.44 C 398.86 224.87 399.02 219.30 398.60 213.75 Z" />
</g>
<g id="#af6c49ff">
<path fill="#af6c49" stroke="#af6c49" stroke-width="0.09375" opacity="1.00" d=" M 338.36 218.43 C 349.09 217.19 341.53 231.44 334.00 229.34 C 323.91 229.16 332.50 218.41 338.36 218.43 Z" />
<path fill="#af6c49" stroke="#af6c49" stroke-width="0.09375" opacity="1.00" d=" M 255.21 221.04 C 259.58 221.42 265.52 226.26 261.17 230.52 C 256.86 230.17 249.77 224.94 255.21 221.04 Z" />
</g>
<g id="#fc6a6bff">
<path fill="#fc6a6b" stroke="#fc6a6b" stroke-width="0.09375" opacity="1.00" d=" M 242.23 254.67 C 233.54 245.37 232.80 228.93 241.01 219.10 C 249.97 231.24 251.98 247.33 253.63 261.98 C 248.89 261.70 245.25 258.39 242.13 255.14 C 241.84 255.49 241.24 256.20 240.95 256.55 C 240.67 256.12 240.11 255.25 239.84 254.81 C 240.44 254.78 241.64 254.71 242.23 254.67 Z" />
<path fill="#fc6a6b" stroke="#fc6a6b" stroke-width="0.09375" opacity="1.00" d=" M 347.57 257.74 C 342.66 241.83 357.21 223.08 374.04 224.37 C 387.15 226.44 393.46 245.69 383.81 254.85 C 372.02 250.19 358.72 252.37 347.57 257.74 Z" />
<path fill="#fc6a6b" stroke="#fc6a6b" stroke-width="0.09375" opacity="1.00" d=" M 168.36 403.76 C 156.61 396.38 168.14 383.83 177.75 382.06 C 185.56 390.90 180.66 404.34 168.36 403.76 M 167.48 396.07 C 170.23 404.49 182.93 396.27 177.39 389.51 C 173.06 388.34 168.24 392.00 167.48 396.07 Z" />
<path fill="#fc6a6b" stroke="#fc6a6b" stroke-width="0.09375" opacity="1.00" d=" M 83.39 395.25 C 84.95 390.63 87.71 386.55 90.89 382.91 C 91.74 388.00 90.11 393.01 88.80 397.87 C 86.54 397.99 84.36 397.54 83.39 395.25 Z" />
<path fill="#fc6a6b" stroke="#fc6a6b" stroke-width="0.09375" opacity="1.00" d=" M 70.80 421.68 C 74.53 418.17 74.51 412.29 78.75 409.16 C 86.75 418.30 93.79 428.36 99.64 438.99 C 99.67 442.85 95.44 456.46 91.26 449.01 C 97.69 437.85 86.12 428.33 79.73 420.26 C 79.13 420.24 77.91 420.22 77.30 420.20 C 76.18 423.58 73.45 426.29 73.41 430.03 C 69.95 428.98 71.03 424.43 70.80 421.68 Z" />
</g>
<g id="#a43c3fff">
<path fill="#a43c3f" stroke="#a43c3f" stroke-width="0.09375" opacity="1.00" d=" M 280.26 248.17 C 292.67 245.65 306.12 255.08 319.57 252.15 C 319.83 253.76 320.09 255.38 320.35 257.00 C 308.03 256.07 294.10 258.99 285.51 268.44 C 276.33 264.96 280.68 253.83 279.84 246.56 L 280.26 248.17 Z" />
<path fill="#a43c3f" stroke="#a43c3f" stroke-width="0.09375" opacity="1.00" d=" M 127.66 341.55 C 125.22 331.49 137.99 332.43 143.81 335.52 L 143.81 335.62 C 143.74 338.25 143.92 341.07 142.29 343.32 C 139.04 342.09 135.47 342.20 132.21 343.31 C 130.69 342.71 129.18 342.13 127.66 341.55 Z" />
</g>
<g id="#fdc0d0ff">
<path fill="#fdc0d0" stroke="#fdc0d0" stroke-width="0.09375" opacity="1.00" d=" M 285.51 268.44 C 294.10 258.99 308.03 256.07 320.35 257.00 C 323.60 261.07 325.38 270.10 317.96 270.40 C 307.91 271.67 292.22 275.86 285.51 268.44 Z" />
<path fill="#fdc0d0" stroke="#fdc0d0" stroke-width="0.09375" opacity="1.00" d=" M 132.21 343.31 C 135.47 342.20 139.04 342.09 142.29 343.32 C 142.68 343.47 143.46 343.77 143.85 343.93 C 145.81 355.41 128.11 352.79 132.21 343.31 Z" />
</g>
<g id="#fca3b7ff">
<path fill="#fca3b7" stroke="#fca3b7" stroke-width="0.09375" opacity="1.00" d=" M 61.99 287.91 C 55.87 290.03 53.49 278.35 56.98 275.17 C 60.65 278.08 59.79 283.86 61.99 287.91 Z" />
<path fill="#fca3b7" stroke="#fca3b7" stroke-width="0.09375" opacity="1.00" d=" M 40.85 292.17 C 41.41 291.70 42.53 290.76 43.09 290.30 C 45.47 292.72 50.93 294.97 49.80 298.73 C 45.60 299.45 42.59 295.45 40.85 292.17 Z" />
<path fill="#fca3b7" stroke="#fca3b7" stroke-width="0.09375" opacity="1.00" d=" M 33.01 310.05 C 37.10 310.58 46.38 308.00 46.69 313.68 C 42.79 315.69 37.94 313.58 33.72 313.24 C 33.48 312.17 33.24 311.11 33.01 310.05 Z" />
<path fill="#fca3b7" stroke="#fca3b7" stroke-width="0.09375" opacity="1.00" d=" M 176.89 457.76 C 180.63 455.50 184.73 453.77 189.01 452.85 C 196.74 463.76 179.26 470.38 176.89 457.76 Z" />
</g>
<g id="#fef3d9ff">
<path fill="#fef3d9" stroke="#fef3d9" stroke-width="0.09375" opacity="1.00" d=" M 118.28 306.07 C 127.14 295.12 136.52 283.20 150.26 278.31 C 159.60 288.34 168.25 300.51 171.60 313.81 C 186.79 307.10 204.46 302.42 220.99 305.82 C 218.19 318.77 212.57 331.86 205.12 343.10 C 205.91 346.77 207.48 350.25 207.79 354.03 C 206.88 354.85 205.98 355.69 205.08 356.53 C 201.44 357.25 199.02 360.20 196.10 362.21 C 195.07 361.28 194.03 360.38 192.99 359.49 C 188.56 361.04 188.00 366.48 186.97 370.41 C 182.42 367.25 178.94 361.53 173.37 360.47 C 167.91 365.53 163.37 371.56 159.41 377.87 C 155.09 370.85 150.13 353.11 140.03 363.49 C 136.13 358.31 130.67 359.12 126.31 363.08 C 119.28 353.25 113.93 369.84 110.02 374.91 C 104.97 368.85 102.61 359.40 95.05 356.17 C 90.96 360.00 87.03 364.02 82.95 367.83 C 75.48 359.32 78.59 350.46 84.39 342.19 L 84.29 341.32 C 84.15 340.02 84.03 338.73 83.91 337.44 C 83.12 337.41 81.55 337.35 80.77 337.32 C 78.26 325.49 74.12 313.00 76.90 300.94 C 91.10 299.74 103.92 309.27 117.33 311.67 C 117.74 309.82 118.07 307.95 118.28 306.07 M 155.65 322.54 C 153.51 324.53 149.60 329.35 153.15 331.43 C 154.76 319.76 164.97 324.32 167.63 332.75 C 168.93 326.85 161.64 317.82 155.65 322.54 M 112.30 330.86 C 114.28 330.79 115.08 328.98 115.67 327.38 C 116.88 325.85 118.30 324.50 119.92 323.42 C 122.82 324.68 124.81 327.25 125.95 330.12 C 126.42 330.29 127.37 330.63 127.84 330.80 C 127.92 319.47 112.41 319.77 112.30 330.86 M 127.66 341.55 C 128.82 346.42 130.98 351.90 135.89 354.04 C 145.14 355.82 149.41 340.44 143.81 335.62 L 143.81 335.52 C 137.99 332.43 125.22 331.49 127.66 341.55 Z" />
<path fill="#fef3d9" stroke="#fef3d9" stroke-width="0.09375" opacity="1.00" d=" M 111.69 290.73 C 115.12 282.94 121.07 291.26 125.07 294.06 C 123.90 295.91 122.56 297.65 121.16 299.33 C 116.15 300.59 111.44 302.75 107.03 305.44 C 99.28 302.92 110.25 295.22 111.69 290.73 Z" />
<path fill="#fef3d9" stroke="#fef3d9" stroke-width="0.09375" opacity="1.00" d=" M 166.77 295.93 C 176.35 289.96 190.99 289.38 188.72 304.57 C 185.79 305.26 183.01 306.76 179.95 306.72 C 176.59 303.04 172.19 300.35 167.70 298.24 C 167.47 297.66 167.00 296.50 166.77 295.93 Z" />
<path fill="#fef3d9" stroke="#fef3d9" stroke-width="0.09375" opacity="1.00" d=" M 169.91 301.82 C 174.05 303.11 182.16 309.75 173.22 309.94 C 172.41 307.11 170.84 304.60 169.91 301.82 Z" />
<path fill="#fef3d9" stroke="#fef3d9" stroke-width="0.09375" opacity="1.00" d=" M 109.33 306.30 C 112.52 304.86 115.59 303.07 119.03 302.27 C 118.31 305.08 115.84 306.75 113.94 308.73 C 112.47 307.77 110.96 306.91 109.33 306.30 Z" />
<path fill="#fef3d9" stroke="#fef3d9" stroke-width="0.09375" opacity="1.00" d=" M 54.75 353.42 C 62.19 353.54 71.71 355.41 74.89 363.04 C 75.39 371.75 72.40 380.23 68.25 387.77 C 66.97 387.54 65.97 386.84 65.26 385.68 C 55.88 378.71 54.53 364.49 54.75 353.42 Z" />
<path fill="#fef3d9" stroke="#fef3d9" stroke-width="0.09375" opacity="1.00" d=" M 192.59 384.01 C 186.69 368.53 203.04 357.47 215.94 353.94 C 222.87 351.38 224.33 356.13 223.07 362.10 C 220.60 371.84 217.93 383.34 208.67 388.86 C 202.82 392.57 195.72 389.81 192.59 384.01 Z" />
<path fill="#fef3d9" stroke="#fef3d9" stroke-width="0.09375" opacity="1.00" d=" M 501.68 395.47 C 504.04 385.98 511.75 392.33 501.68 395.47 Z" />
<path fill="#fef3d9" stroke="#fef3d9" stroke-width="0.09375" opacity="1.00" d=" M 175.42 420.85 C 192.16 423.81 195.76 444.85 195.66 459.11 C 196.75 469.85 181.43 473.43 176.10 464.88 C 168.85 452.81 164.68 434.85 173.43 422.87 C 174.01 429.12 174.76 435.44 176.73 441.43 C 177.16 441.46 178.02 441.52 178.45 441.55 C 177.43 434.65 175.67 427.83 175.42 420.85 M 174.95 456.13 C 175.51 462.40 180.82 470.60 187.97 466.35 C 195.47 464.13 192.43 455.34 190.21 450.20 C 184.73 450.94 179.73 453.51 174.95 456.13 Z" />
<path fill="#fef3d9" stroke="#fef3d9" stroke-width="0.09375" opacity="1.00" d=" M 230.18 446.24 C 229.98 441.46 232.81 437.47 235.79 434.04 C 236.18 434.29 236.94 434.80 237.33 435.05 C 233.85 437.97 231.48 441.91 230.18 446.24 Z" />
<path fill="#fef3d9" stroke="#fef3d9" stroke-width="0.09375" opacity="1.00" d=" M 78.89 478.02 C 77.90 468.14 91.97 452.57 101.45 461.69 C 106.52 464.29 112.38 464.68 117.67 466.76 C 109.82 477.85 94.75 482.52 81.75 479.56 C 84.36 475.49 88.77 473.05 91.74 469.27 C 86.13 469.89 83.46 475.80 78.89 478.02 Z" />
</g>
<g id="#ebc272ff">
<path fill="#ebc272" stroke="#ebc272" stroke-width="0.09375" opacity="1.00" d=" M 283.86 280.01 C 294.86 280.91 305.77 283.09 316.89 282.84 C 317.37 284.91 317.98 286.97 319.06 288.81 C 309.50 300.62 287.70 292.44 283.86 280.01 Z" />
</g>
<g id="#9a5a3eff">
<path fill="#9a5a3e" stroke="#9a5a3e" stroke-width="0.09375" opacity="1.00" d=" M 416.32 334.66 C 406.48 329.16 401.90 316.52 406.34 306.02 C 410.85 314.77 418.14 324.82 416.32 334.66 Z" />
<path fill="#9a5a3e" stroke="#9a5a3e" stroke-width="0.09375" opacity="1.00" d=" M 447.20 353.13 C 450.83 361.85 454.23 370.87 456.04 380.16 C 449.53 381.29 442.17 376.77 436.33 380.24 C 435.93 387.23 438.35 394.06 439.67 400.87 C 432.83 399.95 425.99 398.99 419.22 397.73 C 428.17 388.21 421.25 371.43 431.35 364.38 C 433.34 353.57 440.78 359.69 447.44 356.32 C 446.12 355.68 444.80 355.05 443.46 354.53 C 444.96 354.50 446.44 354.65 447.95 354.77 L 447.20 353.13 Z" />
<path fill="#9a5a3e" stroke="#9a5a3e" stroke-width="0.09375" opacity="1.00" d=" M 419.68 391.06 C 412.52 383.26 416.08 369.44 423.47 362.92 C 424.49 372.45 423.28 382.14 419.68 391.06 Z" />
<path fill="#9a5a3e" stroke="#9a5a3e" stroke-width="0.09375" opacity="1.00" d=" M 80.63 396.16 C 83.09 390.46 85.48 382.23 92.26 380.75 C 94.58 387.12 93.02 394.49 90.27 400.49 C 86.69 400.42 82.15 400.02 80.63 396.16 M 83.39 395.25 C 84.36 397.54 86.54 397.99 88.80 397.87 C 90.11 393.01 91.74 388.00 90.89 382.91 C 87.71 386.55 84.95 390.63 83.39 395.25 Z" />
</g>
<g id="#806550ff">
<path fill="#806550" stroke="#806550" stroke-width="0.09375" opacity="1.00" d=" M 260.62 309.99 C 261.40 310.09 262.18 310.20 262.96 310.29 C 263.10 318.99 262.01 327.71 259.51 336.05 C 259.12 335.46 258.34 334.27 257.95 333.68 C 259.81 325.94 261.57 317.99 260.62 309.99 Z" />
<path fill="#806550" stroke="#806550" stroke-width="0.09375" opacity="1.00" d=" M 174.95 456.13 C 179.73 453.51 184.73 450.94 190.21 450.20 C 192.43 455.34 195.47 464.13 187.97 466.35 C 180.82 470.60 175.51 462.40 174.95 456.13 M 176.89 457.76 C 179.26 470.38 196.74 463.76 189.01 452.85 C 184.73 453.77 180.63 455.50 176.89 457.76 Z" />
</g>
<g id="#fdfbeeff">
<path fill="#fdfbee" stroke="#fdfbee" stroke-width="0.09375" opacity="1.00" d=" M 425.45 353.05 C 426.72 356.65 434.32 364.09 426.38 364.04 C 425.57 360.43 425.63 356.71 425.45 353.05 Z" />
<path fill="#fdfbee" stroke="#fdfbee" stroke-width="0.09375" opacity="1.00" d=" M 66.73 389.85 C 76.53 384.77 77.09 368.59 76.44 358.88 C 78.29 362.86 79.58 367.22 82.43 370.66 C 87.73 368.53 90.34 360.19 97.05 360.44 C 100.33 367.55 106.98 371.77 109.87 378.96 C 113.45 373.18 116.95 367.32 121.08 361.89 C 121.57 362.07 122.57 362.42 123.07 362.60 C 125.36 367.89 130.31 364.13 132.94 361.26 C 137.00 364.89 141.78 367.17 145.99 362.29 C 152.79 365.57 154.44 375.68 159.03 381.73 C 162.80 375.25 167.07 369.03 171.87 363.26 C 179.04 363.30 183.23 370.11 188.38 374.10 C 189.87 370.16 189.78 365.76 192.21 362.16 C 192.98 362.71 193.76 363.27 194.54 363.84 C 191.73 371.12 186.87 379.68 191.98 387.12 C 196.09 394.14 206.47 394.31 212.16 389.17 C 217.88 399.66 218.06 416.58 214.09 429.01 C 211.84 437.96 205.61 446.59 197.53 450.61 C 198.15 441.77 194.01 432.92 188.59 426.11 C 188.55 422.09 189.52 412.85 182.98 414.55 C 170.65 417.94 160.51 427.51 154.80 438.80 C 150.54 444.84 155.15 451.46 162.33 450.09 L 162.38 450.32 C 162.44 450.57 162.55 451.05 162.61 451.29 C 164.29 451.27 165.99 451.36 167.67 451.46 C 168.37 455.24 170.13 458.68 171.61 462.20 C 146.92 465.63 117.93 468.44 96.29 453.79 C 98.17 448.89 102.61 443.98 101.73 438.34 C 95.42 427.30 88.45 416.39 79.68 407.11 C 74.58 406.87 73.46 413.20 72.29 417.00 C 71.72 418.25 70.42 421.07 68.96 418.90 C 65.65 409.69 64.95 399.48 66.73 389.85 M 164.98 404.20 C 166.93 405.13 169.01 405.79 171.09 406.39 C 176.23 403.10 185.26 400.65 184.31 393.01 C 182.70 388.32 181.54 383.25 178.06 379.51 C 167.75 381.81 154.47 394.25 164.98 404.20 M 80.63 396.16 C 82.15 400.02 86.69 400.42 90.27 400.49 C 93.02 394.49 94.58 387.12 92.26 380.75 C 85.48 382.23 83.09 390.46 80.63 396.16 M 110.73 389.82 C 112.30 391.06 114.33 391.11 116.15 391.74 C 114.44 391.85 112.73 391.89 111.02 391.88 C 111.10 394.65 111.02 397.44 111.29 400.22 C 110.52 396.87 110.41 393.43 110.77 390.03 C 106.33 390.08 108.79 396.11 108.66 398.96 C 111.42 411.71 114.16 427.38 126.62 434.25 C 138.21 435.84 142.11 421.29 145.80 412.91 C 146.31 411.63 146.76 410.33 147.25 409.05 C 148.16 406.28 148.91 403.42 148.55 400.47 C 141.06 394.65 131.05 393.74 122.26 390.81 C 118.43 390.59 114.47 388.06 110.73 389.82 Z" />
<path fill="#fdfbee" stroke="#fdfbee" stroke-width="0.09375" opacity="1.00" d=" M 484.06 384.52 C 484.47 378.82 486.58 372.00 491.79 369.03 C 490.43 374.63 488.14 380.34 484.06 384.52 Z" />
<path fill="#fdfbee" stroke="#fdfbee" stroke-width="0.09375" opacity="1.00" d=" M 490.95 378.10 C 491.39 378.15 492.29 378.24 492.73 378.29 C 497.77 378.88 502.76 377.56 507.79 377.50 C 504.41 385.50 497.60 397.66 487.32 394.67 C 479.96 389.65 488.82 383.39 490.95 378.10 M 491.16 381.43 C 488.88 386.90 496.62 381.36 491.16 381.43 M 499.88 383.98 C 499.85 383.27 499.80 381.85 499.77 381.14 C 496.01 380.28 496.07 385.23 499.88 383.98 M 491.32 386.05 C 489.97 391.97 497.03 390.90 497.91 386.29 C 496.31 386.06 495.04 387.00 493.89 387.96 C 493.03 387.32 492.17 386.68 491.32 386.05 Z" />
<path fill="#fdfbee" stroke="#fdfbee" stroke-width="0.09375" opacity="1.00" d=" M 169.12 396.09 C 171.00 394.04 172.73 391.25 175.81 391.08 C 176.11 392.44 176.38 393.80 176.65 395.16 C 174.46 396.74 171.29 399.13 169.12 396.09 Z" />
<path fill="#fdfbee" stroke="#fdfbee" stroke-width="0.09375" opacity="1.00" d=" M 119.55 401.71 C 124.98 401.62 130.17 403.17 135.24 404.93 C 137.92 411.07 131.58 418.03 127.31 421.97 C 123.53 415.84 119.71 409.05 119.55 401.71 Z" />
<path fill="#fdfbee" stroke="#fdfbee" stroke-width="0.09375" opacity="1.00" d=" M 78.35 434.41 C 75.87 430.62 75.95 425.43 78.98 421.98 C 83.86 429.82 95.34 437.97 89.14 447.97 C 84.70 444.20 80.74 439.77 78.35 434.41 Z" />
<path fill="#fdfbee" stroke="#fdfbee" stroke-width="0.09375" opacity="1.00" d=" M 165.00 435.65 L 166.51 435.23 C 166.34 438.31 166.22 441.40 166.25 444.49 C 165.96 444.47 165.38 444.44 165.09 444.42 C 164.33 444.00 162.82 443.15 162.06 442.73 C 162.03 440.03 163.74 437.87 165.00 435.65 Z" />
</g>
<g id="#ccbab2ff">
<path fill="#ccbab2" stroke="#ccbab2" stroke-width="0.09375" opacity="1.00" d=" M 491.16 381.43 C 496.62 381.36 488.88 386.90 491.16 381.43 Z" />
<path fill="#ccbab2" stroke="#ccbab2" stroke-width="0.09375" opacity="1.00" d=" M 499.88 383.98 C 496.07 385.23 496.01 380.28 499.77 381.14 C 499.80 381.85 499.85 383.27 499.88 383.98 Z" />
<path fill="#ccbab2" stroke="#ccbab2" stroke-width="0.09375" opacity="1.00" d=" M 516.16 381.18 C 522.93 378.35 516.57 388.25 516.16 381.18 Z" />
</g>
<g id="#839ffbff">
<path fill="#839ffb" stroke="#839ffb" stroke-width="0.09375" opacity="1.00" d=" M 111.02 391.88 C 112.73 391.89 114.44 391.85 116.15 391.74 C 126.51 393.82 136.75 396.74 146.48 400.89 C 146.59 407.53 143.07 413.45 141.02 419.59 C 140.44 419.85 139.27 420.38 138.69 420.65 C 136.92 425.22 133.76 428.95 130.58 432.59 C 116.58 429.96 113.79 412.02 111.29 400.22 C 111.02 397.44 111.10 394.65 111.02 391.88 M 117.61 400.80 C 117.77 409.55 121.50 418.84 128.05 424.78 C 132.55 419.14 138.27 413.30 138.63 405.71 C 133.28 400.75 124.59 398.46 117.61 400.80 Z" />
<path fill="#839ffb" stroke="#839ffb" stroke-width="0.09375" opacity="1.00" d=" M 165.25 449.30 C 146.71 448.72 161.40 430.42 168.75 424.15 C 168.29 426.25 167.81 428.34 167.34 430.44 C 163.87 434.16 158.84 438.55 160.51 444.21 C 161.16 444.51 162.45 445.10 163.10 445.39 C 164.01 445.81 164.92 446.24 165.83 446.68 C 165.64 447.55 165.45 448.42 165.25 449.30 Z" />
</g>
<g id="#8a8fc7ff">
<path fill="#8a8fc7" stroke="#8a8fc7" stroke-width="0.09375" opacity="1.00" d=" M 186.85 424.14 C 180.60 420.63 174.68 415.69 186.34 416.27 C 186.48 418.89 186.67 421.51 186.85 424.14 Z" />
<path fill="#8a8fc7" stroke="#8a8fc7" stroke-width="0.09375" opacity="1.00" d=" M 138.69 420.65 C 139.27 420.38 140.44 419.85 141.02 419.59 C 138.69 424.58 136.29 430.72 130.58 432.59 C 133.76 428.95 136.92 425.22 138.69 420.65 Z" />
</g>
<g id="#9c8371ff">
<path fill="#9c8371" stroke="#9c8371" stroke-width="0.09375" opacity="1.00" d=" M 165.00 435.65 C 165.46 434.70 166.16 433.97 167.08 433.48 C 166.36 439.48 166.56 445.52 167.67 451.46 C 165.99 451.36 164.29 451.27 162.61 451.29 C 162.55 451.05 162.44 450.57 162.38 450.32 C 163.21 449.73 164.16 449.39 165.25 449.30 C 165.45 448.42 165.64 447.55 165.83 446.68 C 164.92 446.24 164.01 445.81 163.10 445.39 C 163.60 445.15 164.59 444.66 165.09 444.42 C 165.38 444.44 165.96 444.47 166.25 444.49 C 166.22 441.40 166.34 438.31 166.51 435.23 L 165.00 435.65 Z" />
</g>
</svg>
