<?xml version="1.0" encoding="UTF-8" ?>
<!DOCTYPE svg PUBLIC "-//W3C//DTD SVG 1.1//EN" "http://www.w3.org/Graphics/SVG/1.1/DTD/svg11.dtd">
<svg width="1562pt" height="1562pt" viewBox="0 0 1562 1562" version="1.1" xmlns="http://www.w3.org/2000/svg">
<path fill="#f9d74f" opacity="1.00" d=" M 0.00 0.00 L 1562.00 0.00 L 1562.00 1562.00 L 0.00 1562.00 L 0.00 0.00 M 337.33 403.29 C 325.40 404.45 314.31 409.17 303.12 413.08 C 295.75 416.14 288.94 420.65 283.46 426.47 C 280.20 429.87 276.62 432.96 273.40 436.40 C 257.77 453.28 246.82 474.61 243.08 497.36 C 239.59 517.16 241.46 538.06 249.53 556.55 C 262.28 586.69 289.40 609.55 320.27 619.56 C 340.07 625.67 361.65 627.14 381.75 621.60 C 399.43 617.02 415.53 607.27 428.60 594.61 C 440.41 583.04 449.47 568.84 455.73 553.58 C 461.59 537.85 465.24 520.85 463.20 504.02 C 460.66 479.25 449.72 455.48 432.60 437.42 C 421.05 425.71 407.16 416.19 391.78 410.28 C 374.50 403.81 355.69 401.05 337.33 403.29 M 1169.42 408.64 C 1155.89 409.85 1143.27 415.04 1130.74 419.86 C 1119.54 424.92 1111.62 434.61 1103.00 443.00 C 1080.28 467.75 1068.54 502.55 1072.84 535.99 C 1074.53 548.42 1078.79 560.40 1084.59 571.48 C 1104.68 607.74 1145.59 631.22 1187.00 630.50 C 1205.40 630.62 1223.65 625.07 1239.30 615.50 C 1257.83 604.40 1272.61 587.53 1282.21 568.26 C 1291.42 549.08 1296.60 527.27 1293.30 506.00 C 1290.64 485.99 1282.51 466.77 1270.08 450.88 C 1260.20 438.69 1247.98 428.21 1233.96 421.07 C 1214.19 410.90 1191.56 406.48 1169.42 408.64 M 741.48 543.69 C 734.80 544.44 727.77 545.25 722.00 548.98 C 718.50 551.46 718.93 556.68 721.20 559.87 C 725.78 566.56 732.67 571.18 739.21 575.79 C 744.58 579.72 750.52 582.76 756.31 586.02 C 757.88 587.18 759.47 585.54 760.87 584.89 C 770.91 578.53 781.13 572.07 789.26 563.29 C 792.42 559.85 795.18 554.37 792.05 550.05 C 789.24 546.77 784.59 546.18 780.63 545.17 C 767.76 542.65 754.51 542.68 741.48 543.69 M 752.56 653.59 C 721.20 672.78 689.04 690.66 656.19 707.17 C 639.74 715.28 623.23 723.38 606.01 729.78 C 587.19 736.52 566.55 739.61 546.84 735.15 C 528.30 730.93 510.91 721.86 496.57 709.42 C 495.05 708.17 493.59 706.81 491.84 705.90 C 488.65 704.67 484.95 706.48 483.38 709.38 C 483.06 711.44 482.63 714.09 484.35 715.68 C 489.67 721.10 495.99 725.42 502.19 729.77 C 508.71 734.25 516.17 737.18 522.97 741.08 C 536.58 792.68 551.39 843.99 568.50 894.55 C 583.38 938.69 599.89 982.27 617.92 1025.22 C 634.08 1064.08 650.78 1102.99 673.38 1138.64 C 682.74 1153.53 693.49 1167.60 705.84 1180.14 C 720.09 1194.32 737.69 1206.50 757.95 1209.61 C 777.73 1212.83 797.71 1205.92 813.99 1194.92 C 845.80 1173.38 868.21 1141.11 887.34 1108.41 C 920.27 1053.28 943.92 993.23 964.61 932.61 C 978.51 891.19 990.19 849.01 999.09 806.23 C 1004.67 782.54 1011.49 757.91 1006.14 733.52 C 1016.72 728.96 1026.16 722.13 1035.40 715.33 C 1037.77 713.43 1040.38 711.74 1042.35 709.39 C 1044.97 705.62 1041.27 700.03 1036.89 700.23 C 1033.93 699.75 1031.70 701.88 1029.61 703.58 C 1012.07 717.65 991.35 728.44 968.94 731.76 C 947.34 735.19 925.48 730.53 904.90 724.13 C 882.64 717.16 861.30 707.62 840.14 697.90 C 812.64 684.89 785.96 670.15 760.22 653.94 C 757.94 652.47 754.90 651.96 752.56 653.59 M 1326.49 780.70 C 1288.62 784.23 1252.83 803.33 1227.85 831.85 C 1200.00 863.31 1184.80 906.05 1188.20 948.08 C 1190.79 983.76 1208.00 1017.66 1233.85 1042.14 C 1267.50 1074.45 1315.48 1091.64 1362.00 1086.74 C 1382.06 1084.52 1401.74 1078.35 1419.25 1068.26 C 1450.77 1050.51 1475.37 1021.27 1488.63 987.70 C 1497.16 965.32 1501.42 940.92 1498.10 917.03 C 1493.82 880.57 1475.76 846.07 1448.64 821.38 C 1415.95 791.58 1370.52 776.54 1326.49 780.70 M 173.37 781.43 C 138.23 785.75 105.20 803.35 81.29 829.35 C 53.02 859.71 36.87 901.39 38.79 942.96 C 39.58 963.91 45.22 984.65 54.98 1003.19 C 82.43 1055.49 141.06 1089.31 200.00 1087.66 C 221.20 1087.77 242.13 1082.11 261.27 1073.25 C 286.81 1060.77 308.92 1041.26 324.27 1017.32 C 339.65 994.15 348.62 966.80 350.06 939.03 C 351.53 889.73 327.08 840.69 287.29 811.69 C 255.01 787.56 213.35 776.68 173.37 781.43 Z" />
<path fill="#020203" opacity="1.00" d=" M 337.33 403.29 C 355.69 401.05 374.50 403.81 391.78 410.28 C 407.16 416.19 421.05 425.71 432.60 437.42 C 449.72 455.48 460.66 479.25 463.20 504.02 C 465.24 520.85 461.59 537.85 455.73 553.58 C 449.47 568.84 440.41 583.04 428.60 594.61 C 415.53 607.27 399.43 617.02 381.75 621.60 C 361.65 627.14 340.07 625.67 320.27 619.56 C 289.40 609.55 262.28 586.69 249.53 556.55 C 241.46 538.06 239.59 517.16 243.08 497.36 C 246.82 474.61 257.77 453.28 273.40 436.40 C 276.62 432.96 280.20 429.87 283.46 426.47 C 288.94 420.65 295.75 416.14 303.12 413.08 C 314.31 409.17 325.40 404.45 337.33 403.29 M 351.66 415.27 C 353.06 416.94 354.86 418.19 356.71 419.32 C 363.79 423.67 369.79 429.65 374.53 436.44 C 381.77 448.49 386.35 462.86 384.07 477.01 C 381.54 490.35 375.29 503.05 365.93 512.93 C 358.12 520.16 348.85 526.26 338.21 528.22 C 311.88 533.10 282.73 519.65 270.49 495.57 C 266.21 487.69 264.94 478.63 264.66 469.79 C 251.65 493.21 251.28 522.44 260.78 547.19 C 270.43 572.73 290.18 595.04 315.73 605.34 C 344.38 617.41 378.56 613.12 404.56 596.60 C 421.25 586.50 434.22 570.79 442.23 553.11 C 445.30 546.96 446.75 540.19 448.58 533.61 C 453.27 515.01 450.41 495.24 443.33 477.63 C 433.86 454.79 416.59 434.40 393.71 424.24 C 380.76 417.69 366.11 414.99 351.66 415.27 M 313.41 424.72 C 301.26 426.67 289.56 433.57 283.38 444.42 C 277.66 453.54 276.91 464.85 278.37 475.28 C 280.02 487.77 287.03 499.45 297.42 506.62 C 309.85 515.09 326.25 516.96 340.48 512.38 C 352.77 508.49 363.14 499.07 368.08 487.15 C 371.18 479.31 372.97 470.57 371.07 462.22 C 368.95 449.16 360.53 437.46 349.10 430.92 C 338.40 424.72 325.56 422.74 313.41 424.72 Z" />
<path fill="#020203" opacity="1.00" d=" M 1169.42 408.64 C 1191.56 406.48 1214.19 410.90 1233.96 421.07 C 1247.98 428.21 1260.20 438.69 1270.08 450.88 C 1282.51 466.77 1290.64 485.99 1293.30 506.00 C 1296.60 527.27 1291.42 549.08 1282.21 568.26 C 1272.61 587.53 1257.83 604.40 1239.30 615.50 C 1223.65 625.07 1205.40 630.62 1187.00 630.50 C 1145.59 631.22 1104.68 607.74 1084.59 571.48 C 1078.79 560.40 1074.53 548.42 1072.84 535.99 C 1068.54 502.55 1080.28 467.75 1103.00 443.00 C 1111.62 434.61 1119.54 424.92 1130.74 419.86 C 1143.27 415.04 1155.89 409.85 1169.42 408.64 M 1181.76 421.27 C 1188.61 425.53 1195.52 430.00 1200.66 436.34 C 1208.30 445.04 1212.83 456.17 1214.55 467.55 C 1216.39 477.82 1213.96 488.40 1209.93 497.87 C 1203.84 513.48 1190.87 526.10 1175.29 532.18 C 1146.87 541.15 1113.10 526.52 1100.33 499.59 C 1096.75 492.49 1095.94 484.54 1094.86 476.79 C 1092.51 479.46 1091.46 482.92 1090.16 486.15 C 1081.67 509.21 1083.70 535.29 1093.32 557.67 C 1101.20 575.37 1113.59 591.44 1129.99 602.00 C 1145.57 613.10 1164.99 618.42 1184.05 617.66 C 1202.39 617.34 1220.34 611.42 1235.90 601.84 C 1250.53 592.01 1262.96 578.64 1270.81 562.79 C 1280.07 544.08 1284.28 522.15 1279.44 501.59 C 1276.35 484.91 1268.39 469.34 1257.86 456.16 C 1245.76 441.03 1228.93 429.71 1210.24 424.50 C 1201.13 421.38 1191.33 420.60 1181.76 421.27 M 1144.29 430.20 C 1132.80 432.12 1121.51 438.08 1115.08 448.06 C 1108.35 457.89 1107.10 470.50 1109.14 481.99 C 1110.85 492.59 1116.24 502.61 1124.52 509.51 C 1140.40 523.00 1165.21 524.01 1182.43 512.42 C 1199.42 501.32 1207.20 477.67 1199.11 458.88 C 1191.11 437.47 1166.04 426.35 1144.29 430.20 Z" />
<path fill="#343434" opacity="1.00" d=" M 351.66 415.27 C 366.11 414.99 380.76 417.69 393.71 424.24 C 416.59 434.40 433.86 454.79 443.33 477.63 C 450.41 495.24 453.27 515.01 448.58 533.61 C 446.75 540.19 445.30 546.96 442.23 553.11 C 434.22 570.79 421.25 586.50 404.56 596.60 C 378.56 613.12 344.38 617.41 315.73 605.34 C 290.18 595.04 270.43 572.73 260.78 547.19 C 251.28 522.44 251.65 493.21 264.66 469.79 C 264.94 478.63 266.21 487.69 270.49 495.57 C 282.73 519.65 311.88 533.10 338.21 528.22 C 348.85 526.26 358.12 520.16 365.93 512.93 C 375.29 503.05 381.54 490.35 384.07 477.01 C 386.35 462.86 381.77 448.49 374.53 436.44 C 369.79 429.65 363.79 423.67 356.71 419.32 C 354.86 418.19 353.06 416.94 351.66 415.27 Z" />
<path fill="#343434" opacity="1.00" d=" M 1181.76 421.27 C 1191.33 420.60 1201.13 421.38 1210.24 424.50 C 1228.93 429.71 1245.76 441.03 1257.86 456.16 C 1268.39 469.34 1276.35 484.91 1279.44 501.59 C 1284.28 522.15 1280.07 544.08 1270.81 562.79 C 1262.96 578.64 1250.53 592.01 1235.90 601.84 C 1220.34 611.42 1202.39 617.34 1184.05 617.66 C 1164.99 618.42 1145.57 613.10 1129.99 602.00 C 1113.59 591.44 1101.20 575.37 1093.32 557.67 C 1083.70 535.29 1081.67 509.21 1090.16 486.15 C 1091.46 482.92 1092.51 479.46 1094.86 476.79 C 1095.94 484.54 1096.75 492.49 1100.33 499.59 C 1113.10 526.52 1146.87 541.15 1175.29 532.18 C 1190.87 526.10 1203.84 513.48 1209.93 497.87 C 1213.96 488.40 1216.39 477.82 1214.55 467.55 C 1212.83 456.17 1208.30 445.04 1200.66 436.34 C 1195.52 430.00 1188.61 425.53 1181.76 421.27 Z" />
<path fill="#ffffff" opacity="1.00" d=" M 313.41 424.72 C 325.56 422.74 338.40 424.72 349.10 430.92 C 360.53 437.46 368.95 449.16 371.07 462.22 C 372.97 470.57 371.18 479.31 368.08 487.15 C 363.14 499.07 352.77 508.49 340.48 512.38 C 326.25 516.96 309.85 515.09 297.42 506.62 C 287.03 499.45 280.02 487.77 278.37 475.28 C 276.91 464.85 277.66 453.54 283.38 444.42 C 289.56 433.57 301.26 426.67 313.41 424.72 Z" />
<path fill="#ffffff" opacity="1.00" d=" M 1144.29 430.20 C 1166.04 426.35 1191.11 437.47 1199.11 458.88 C 1207.20 477.67 1199.42 501.32 1182.43 512.42 C 1165.21 524.01 1140.40 523.00 1124.52 509.51 C 1116.24 502.61 1110.85 492.59 1109.14 481.99 C 1107.10 470.50 1108.35 457.89 1115.08 448.06 C 1121.51 438.08 1132.80 432.12 1144.29 430.20 Z" />
<path fill="#020204" opacity="1.00" d=" M 741.48 543.69 C 754.51 542.68 767.76 542.65 780.63 545.17 C 784.59 546.18 789.24 546.77 792.05 550.05 C 795.18 554.37 792.42 559.85 789.26 563.29 C 781.13 572.07 770.91 578.53 760.87 584.89 C 759.47 585.54 757.88 587.18 756.31 586.02 C 750.52 582.76 744.58 579.72 739.21 575.79 C 732.67 571.18 725.78 566.56 721.20 559.87 C 718.93 556.68 718.50 551.46 722.00 548.98 C 727.77 545.25 734.80 544.44 741.48 543.69 Z" />
<path fill="#050305" opacity="1.00" d=" M 752.56 653.59 C 754.90 651.96 757.94 652.47 760.22 653.94 C 785.96 670.15 812.64 684.89 840.14 697.90 C 861.30 707.62 882.64 717.16 904.90 724.13 C 925.48 730.53 947.34 735.19 968.94 731.76 C 991.35 728.44 1012.07 717.65 1029.61 703.58 C 1031.70 701.88 1033.93 699.75 1036.89 700.23 C 1041.27 700.03 1044.97 705.62 1042.35 709.39 C 1040.38 711.74 1037.77 713.43 1035.40 715.33 C 1026.16 722.13 1016.72 728.96 1006.14 733.52 C 1011.49 757.91 1004.67 782.54 999.09 806.23 C 990.19 849.01 978.51 891.19 964.61 932.61 C 943.92 993.23 920.27 1053.28 887.34 1108.41 C 868.21 1141.11 845.80 1173.38 813.99 1194.92 C 797.71 1205.92 777.73 1212.83 757.95 1209.61 C 737.69 1206.50 720.09 1194.32 705.84 1180.14 C 693.49 1167.60 682.74 1153.53 673.38 1138.64 C 650.78 1102.99 634.08 1064.08 617.92 1025.22 C 599.89 982.27 583.38 938.69 568.50 894.55 C 551.39 843.99 536.58 792.68 522.97 741.08 C 516.17 737.18 508.71 734.25 502.19 729.77 C 495.99 725.42 489.67 721.10 484.35 715.68 C 482.63 714.09 483.06 711.44 483.38 709.38 C 484.95 706.48 488.65 704.67 491.84 705.90 C 493.59 706.81 495.05 708.17 496.57 709.42 C 510.91 721.86 528.30 730.93 546.84 735.15 C 566.55 739.61 587.19 736.52 606.01 729.78 C 623.23 723.38 639.74 715.28 656.19 707.17 C 689.04 690.66 721.20 672.78 752.56 653.59 M 730.44 681.64 C 726.67 683.68 723.34 686.43 719.60 688.52 C 711.63 693.45 702.60 696.48 694.98 701.99 C 675.09 712.41 655.29 723.18 634.41 731.49 C 620.14 738.84 604.80 744.13 589.00 746.92 C 581.66 747.57 574.40 749.13 567.00 748.84 C 555.54 749.11 544.28 746.69 533.17 744.20 C 535.36 755.19 539.90 765.52 542.82 776.32 C 548.40 791.63 553.32 807.18 558.37 822.68 C 562.72 833.66 565.47 845.19 569.83 856.16 C 575.80 873.33 580.94 890.76 587.02 907.90 C 592.53 923.91 597.69 940.06 603.93 955.80 C 609.26 972.37 616.03 988.41 622.40 1004.59 C 636.73 1039.51 652.72 1073.79 671.26 1106.67 C 685.95 1132.14 700.61 1158.40 722.48 1178.52 C 727.33 1183.83 733.48 1187.69 739.60 1191.37 C 747.65 1195.83 756.68 1198.93 765.97 1198.82 C 777.37 1199.19 787.92 1194.22 798.20 1189.99 C 806.64 1185.13 815.01 1179.93 822.17 1173.27 C 831.27 1166.38 838.31 1157.31 845.83 1148.83 C 851.04 1142.55 855.92 1135.99 860.10 1128.98 C 863.43 1123.96 867.23 1119.24 869.92 1113.81 C 881.77 1094.52 892.01 1074.30 902.01 1054.00 C 929.08 998.22 950.43 939.83 967.51 880.27 C 969.33 873.22 971.87 866.30 972.95 859.10 C 975.46 855.22 975.73 850.46 977.05 846.14 C 982.87 821.00 990.58 796.28 994.69 770.76 C 996.40 760.28 997.89 749.60 996.69 738.98 C 985.22 741.52 973.97 745.86 962.04 745.72 C 953.27 745.48 944.33 746.44 935.74 744.23 C 930.44 743.14 924.99 742.88 919.77 741.39 C 889.35 734.37 860.74 721.50 832.56 708.36 C 827.19 705.21 821.72 702.23 815.92 699.98 C 805.18 694.73 794.47 689.29 784.53 682.64 C 774.41 678.66 765.89 671.59 756.01 667.10 C 747.02 671.12 739.28 677.35 730.44 681.64 Z" />
<path fill="#7d272a" opacity="1.00" d=" M 730.44 681.64 C 739.28 677.35 747.02 671.12 756.01 667.10 C 765.89 671.59 774.41 678.66 784.53 682.64 C 794.47 689.29 805.18 694.73 815.92 699.98 C 821.72 702.23 827.19 705.21 832.56 708.36 C 860.74 721.50 889.35 734.37 919.77 741.39 C 924.99 742.88 930.44 743.14 935.74 744.23 C 944.33 746.44 953.27 745.48 962.04 745.72 C 973.97 745.86 985.22 741.52 996.69 738.98 C 997.89 749.60 996.40 760.28 994.69 770.76 C 990.58 796.28 982.87 821.00 977.05 846.14 C 975.73 850.46 975.46 855.22 972.95 859.10 L 973.00 857.90 C 970.83 862.67 969.96 867.89 967.91 872.72 C 964.53 869.48 961.94 865.57 959.17 861.83 C 925.96 820.64 881.15 788.31 830.50 772.41 C 794.38 760.69 755.75 758.50 718.14 762.22 C 686.95 765.67 655.84 774.34 629.08 791.09 C 617.73 797.64 607.63 806.15 598.20 815.19 C 586.57 827.11 576.28 840.73 569.83 856.16 C 565.47 845.19 562.72 833.66 558.37 822.68 C 553.32 807.18 548.40 791.63 542.82 776.32 C 539.90 765.52 535.36 755.19 533.17 744.20 C 544.28 746.69 555.54 749.11 567.00 748.84 C 574.40 749.13 581.66 747.57 589.00 746.92 C 604.80 744.13 620.14 738.84 634.41 731.49 C 655.29 723.18 675.09 712.41 694.98 701.99 C 702.60 696.48 711.63 693.45 719.60 688.52 C 723.34 686.43 726.67 683.68 730.44 681.64 Z" />
<path fill="#dc6569" opacity="1.00" d=" M 718.14 762.22 C 755.75 758.50 794.38 760.69 830.50 772.41 C 881.15 788.31 925.96 820.64 959.17 861.83 C 961.94 865.57 964.53 869.48 967.91 872.72 C 969.96 867.89 970.83 862.67 973.00 857.90 L 972.95 859.10 C 971.87 866.30 969.33 873.22 967.51 880.27 C 950.43 939.83 929.08 998.22 902.01 1054.00 C 892.01 1074.30 881.77 1094.52 869.92 1113.81 C 867.23 1119.24 863.43 1123.96 860.10 1128.98 C 855.92 1135.99 851.04 1142.55 845.83 1148.83 C 838.31 1157.31 831.27 1166.38 822.17 1173.27 C 815.01 1179.93 806.64 1185.13 798.20 1189.99 C 787.92 1194.22 777.37 1199.19 765.97 1198.82 C 756.68 1198.93 747.65 1195.83 739.60 1191.37 C 733.48 1187.69 727.33 1183.83 722.48 1178.52 C 700.61 1158.40 685.95 1132.14 671.26 1106.67 C 652.72 1073.79 636.73 1039.51 622.40 1004.59 C 616.03 988.41 609.26 972.37 603.93 955.80 C 597.69 940.06 592.53 923.91 587.02 907.90 C 580.94 890.76 575.80 873.33 569.83 856.16 C 576.28 840.73 586.57 827.11 598.20 815.19 C 607.63 806.15 617.73 797.64 629.08 791.09 C 655.84 774.34 686.95 765.67 718.14 762.22 Z" />
<path fill="#050305" opacity="1.00" d=" M 1326.49 780.70 C 1370.52 776.54 1415.95 791.58 1448.64 821.38 C 1475.76 846.07 1493.82 880.57 1498.10 917.03 C 1501.42 940.92 1497.16 965.32 1488.63 987.70 C 1475.37 1021.27 1450.77 1050.51 1419.25 1068.26 C 1401.74 1078.35 1382.06 1084.52 1362.00 1086.74 C 1315.48 1091.64 1267.50 1074.45 1233.85 1042.14 C 1208.00 1017.66 1190.79 983.76 1188.20 948.08 C 1184.80 906.05 1200.00 863.31 1227.85 831.85 C 1252.83 803.33 1288.62 784.23 1326.49 780.70 M 1312.48 796.65 C 1301.81 799.32 1291.60 803.46 1281.44 807.61 C 1276.45 810.21 1271.53 812.97 1266.65 815.76 C 1255.23 823.74 1244.23 832.45 1234.60 842.54 C 1221.27 859.23 1209.72 877.95 1204.70 898.91 C 1202.25 907.77 1200.75 916.94 1201.60 926.15 C 1201.32 923.03 1201.11 919.90 1200.46 916.84 C 1201.12 928.24 1199.25 939.87 1201.98 951.09 C 1203.91 965.55 1208.61 979.52 1214.34 992.90 C 1216.16 996.65 1218.48 1000.13 1220.30 1003.89 C 1223.27 1010.17 1228.48 1014.95 1232.11 1020.81 C 1235.42 1026.36 1240.65 1030.30 1244.96 1035.01 C 1249.14 1039.58 1254.38 1042.94 1259.07 1046.94 C 1269.01 1055.04 1280.44 1061.12 1292.42 1065.64 C 1298.99 1067.96 1305.50 1070.62 1312.45 1071.63 C 1325.37 1074.94 1338.81 1073.33 1351.99 1073.69 C 1364.56 1074.13 1376.67 1070.33 1388.76 1067.48 C 1391.80 1066.63 1394.33 1064.65 1397.24 1063.49 C 1404.07 1060.87 1411.03 1058.26 1417.03 1053.99 C 1424.81 1048.12 1433.50 1043.39 1440.40 1036.41 C 1445.67 1031.04 1451.27 1025.91 1455.82 1019.89 C 1458.95 1015.00 1463.00 1010.74 1465.66 1005.56 C 1469.89 997.45 1474.81 989.66 1477.80 980.97 C 1486.12 957.96 1489.22 932.57 1483.64 908.54 C 1481.11 896.57 1477.59 884.77 1472.16 873.77 C 1464.57 859.91 1455.86 846.52 1444.77 835.20 C 1440.86 832.13 1437.54 828.44 1434.02 824.97 C 1430.79 821.72 1426.44 819.96 1423.07 816.89 C 1419.98 814.15 1416.33 812.21 1412.69 810.34 C 1402.70 804.50 1391.67 800.74 1380.65 797.33 C 1370.36 794.45 1359.64 793.44 1349.00 792.80 C 1336.73 792.60 1324.47 794.07 1312.48 796.65 M 1324.74 1074.39 C 1335.67 1075.87 1346.79 1075.08 1357.79 1074.81 L 1357.82 1074.20 C 1346.79 1073.78 1335.75 1073.60 1324.74 1074.39 Z" />
<path fill="#050305" opacity="1.00" d=" M 173.37 781.43 C 213.35 776.68 255.01 787.56 287.29 811.69 C 327.08 840.69 351.53 889.73 350.06 939.03 C 348.62 966.80 339.65 994.15 324.27 1017.32 C 308.92 1041.26 286.81 1060.77 261.27 1073.25 C 242.13 1082.11 221.20 1087.77 200.00 1087.66 C 141.06 1089.31 82.43 1055.49 54.98 1003.19 C 45.22 984.65 39.58 963.91 38.79 942.96 C 36.87 901.39 53.02 859.71 81.29 829.35 C 105.20 803.35 138.23 785.75 173.37 781.43 M 160.38 797.73 C 148.68 801.29 136.95 805.21 126.27 811.26 C 118.49 815.19 111.49 820.42 104.36 825.38 C 98.78 830.43 92.44 834.72 87.75 840.68 C 81.67 847.74 75.22 854.70 71.01 863.10 C 69.42 866.00 67.30 868.58 65.71 871.50 C 58.38 886.33 53.75 902.44 51.93 918.89 C 49.49 945.49 54.76 972.87 67.39 996.45 C 69.82 1002.38 72.99 1007.98 77.00 1013.00 C 80.62 1017.41 83.13 1022.71 87.46 1026.53 C 95.11 1033.84 101.99 1042.09 110.73 1048.16 C 114.25 1050.21 117.38 1052.83 120.81 1055.02 C 133.96 1062.35 147.77 1069.13 162.76 1071.64 C 176.34 1075.57 190.67 1075.11 204.65 1074.61 C 218.00 1072.72 231.69 1071.04 244.07 1065.36 C 250.23 1062.89 256.58 1060.74 262.24 1057.21 C 269.79 1052.50 278.03 1048.73 284.60 1042.60 C 290.94 1037.63 296.27 1031.58 302.02 1025.98 C 306.84 1021.35 309.91 1015.34 314.09 1010.20 C 322.19 996.73 329.42 982.50 333.04 967.12 C 336.81 951.79 338.58 935.81 336.51 920.09 C 333.21 895.73 324.46 871.92 309.96 851.97 C 305.14 844.32 298.28 838.38 292.00 832.01 C 281.81 821.09 268.95 813.10 255.69 806.47 C 250.74 803.95 244.89 803.30 240.47 799.79 C 231.88 797.80 223.31 795.74 214.71 793.80 C 204.58 793.17 194.39 792.90 184.26 793.56 C 176.20 794.34 168.32 796.28 160.38 797.73 Z" />
<path fill="#ea4a3c" opacity="1.00" d=" M 160.38 797.73 C 168.32 796.28 176.20 794.34 184.26 793.56 C 194.39 792.90 204.58 793.17 214.71 793.80 C 223.31 795.74 231.88 797.80 240.47 799.79 C 244.89 803.30 250.74 803.95 255.69 806.47 C 268.95 813.10 281.81 821.09 292.00 832.01 C 298.28 838.38 305.14 844.32 309.96 851.97 C 324.46 871.92 333.21 895.73 336.51 920.09 C 338.58 935.81 336.81 951.79 333.04 967.12 C 329.42 982.50 322.19 996.73 314.09 1010.20 C 309.91 1015.34 306.84 1021.35 302.02 1025.98 C 296.27 1031.58 290.94 1037.63 284.60 1042.60 C 278.03 1048.73 269.79 1052.50 262.24 1057.21 C 256.58 1060.74 250.23 1062.89 244.07 1065.36 C 231.69 1071.04 218.00 1072.72 204.65 1074.61 C 190.67 1075.11 176.34 1075.57 162.76 1071.64 C 147.77 1069.13 133.96 1062.35 120.81 1055.02 C 117.38 1052.83 114.25 1050.21 110.73 1048.16 C 101.99 1042.09 95.11 1033.84 87.46 1026.53 C 83.13 1022.71 80.62 1017.41 77.00 1013.00 C 72.99 1007.98 69.82 1002.38 67.39 996.45 C 54.76 972.87 49.49 945.49 51.93 918.89 C 53.75 902.44 58.38 886.33 65.71 871.50 C 67.30 868.58 69.42 866.00 71.01 863.10 C 75.22 854.70 81.67 847.74 87.75 840.68 C 92.44 834.72 98.78 830.43 104.36 825.38 C 111.49 820.42 118.49 815.19 126.27 811.26 C 136.95 805.21 148.68 801.29 160.38 797.73 Z" />
<path fill="#ea4a3c" opacity="1.00" d=" M 1312.48 796.65 C 1324.47 794.07 1336.73 792.60 1349.00 792.80 C 1359.64 793.44 1370.36 794.45 1380.65 797.33 C 1391.67 800.74 1402.70 804.50 1412.69 810.34 C 1416.33 812.21 1419.98 814.15 1423.07 816.89 C 1426.44 819.96 1430.79 821.72 1434.02 824.97 C 1437.54 828.44 1440.86 832.13 1444.77 835.20 C 1455.86 846.52 1464.57 859.91 1472.16 873.77 C 1477.59 884.77 1481.11 896.57 1483.64 908.54 C 1489.22 932.57 1486.12 957.96 1477.80 980.97 C 1474.81 989.66 1469.89 997.45 1465.66 1005.56 C 1463.00 1010.74 1458.95 1015.00 1455.82 1019.89 C 1451.27 1025.91 1445.67 1031.04 1440.40 1036.41 C 1433.50 1043.39 1424.81 1048.12 1417.03 1053.99 C 1411.03 1058.26 1404.07 1060.87 1397.24 1063.49 C 1394.33 1064.65 1391.80 1066.63 1388.76 1067.48 C 1376.67 1070.33 1364.56 1074.13 1351.99 1073.69 C 1338.81 1073.33 1325.37 1074.94 1312.45 1071.63 C 1305.50 1070.62 1298.99 1067.96 1292.42 1065.64 C 1280.44 1061.12 1269.01 1055.04 1259.07 1046.94 C 1254.38 1042.94 1249.14 1039.58 1244.96 1035.01 C 1240.65 1030.30 1235.42 1026.36 1232.11 1020.81 C 1228.48 1014.95 1223.27 1010.17 1220.30 1003.89 C 1218.48 1000.13 1216.16 996.65 1214.34 992.90 C 1208.61 979.52 1203.91 965.55 1201.98 951.09 C 1199.25 939.87 1201.12 928.24 1200.46 916.84 C 1201.11 919.90 1201.32 923.03 1201.60 926.15 C 1200.75 916.94 1202.25 907.77 1204.70 898.91 C 1209.72 877.95 1221.27 859.23 1234.60 842.54 C 1244.23 832.45 1255.23 823.74 1266.65 815.76 C 1271.53 812.97 1276.45 810.21 1281.44 807.61 C 1291.60 803.46 1301.81 799.32 1312.48 796.65 Z" />
<path fill="#84241a" opacity="1.00" d=" M 1324.74 1074.39 C 1335.75 1073.60 1346.79 1073.78 1357.82 1074.20 L 1357.79 1074.81 C 1346.79 1075.08 1335.67 1075.87 1324.74 1074.39 Z" />
</svg>
