<?xml version="1.0" encoding="UTF-8" ?>
<!DOCTYPE svg PUBLIC "-//W3C//DTD SVG 1.1//EN" "http://www.w3.org/Graphics/SVG/1.1/DTD/svg11.dtd">
<svg width="1024pt" height="1024pt" viewBox="0 0 1024 1024" version="1.1" xmlns="http://www.w3.org/2000/svg">
<g id="#f9d74fff">
<path fill="#f9d74f" opacity="1.00" d=" M 0.00 0.00 L 1024.00 0.00 L 1024.00 1024.00 L 0.00 1024.00 L 0.00 0.00 M 289.32 323.26 C 281.84 324.57 274.37 326.93 267.83 330.83 C 260.00 337.02 252.98 344.56 248.54 353.59 C 241.57 367.20 239.99 383.83 245.65 398.18 C 255.33 423.69 285.35 439.14 311.76 432.49 C 338.90 425.67 357.90 395.86 352.34 368.40 C 349.87 355.79 343.04 344.06 333.10 335.88 C 321.13 325.80 304.80 321.21 289.32 323.26 M 703.33 326.23 C 696.20 327.71 689.02 329.94 682.82 333.81 C 674.83 340.24 667.69 348.04 663.29 357.39 C 656.94 370.63 655.39 386.51 660.69 400.37 C 670.19 426.18 700.43 442.04 727.08 435.22 C 754.96 428.30 774.17 396.94 767.12 369.00 C 764.23 356.50 756.92 345.07 746.70 337.29 C 734.53 327.98 718.48 323.82 703.33 326.23 M 489.43 393.70 C 486.73 394.21 483.68 394.67 481.71 396.78 C 480.19 399.63 482.61 402.51 484.63 404.36 C 489.27 408.47 494.54 411.89 500.07 414.68 C 505.07 412.58 509.43 409.04 513.60 405.61 C 516.01 403.36 519.66 400.04 517.57 396.46 C 515.49 394.62 512.59 394.25 509.96 393.76 C 503.17 392.78 496.23 392.80 489.43 393.70 M 497.50 448.54 C 477.27 460.69 456.59 472.17 435.13 482.03 C 426.84 485.75 418.22 489.17 409.08 489.93 C 396.21 491.24 383.34 486.52 373.11 478.91 C 370.39 477.01 368.11 473.74 364.40 474.27 C 363.67 475.75 362.16 477.76 363.69 479.27 C 369.18 484.78 375.98 488.81 383.06 491.92 C 395.77 541.72 411.97 590.66 432.09 637.96 C 440.58 658.30 449.58 678.64 462.20 696.82 C 470.16 707.98 479.74 718.91 492.73 724.20 C 502.72 728.40 514.38 726.99 523.73 721.79 C 537.57 714.16 548.10 701.83 556.90 688.94 C 567.52 672.93 576.58 655.91 584.36 638.35 C 600.33 601.58 612.95 563.30 621.17 524.04 C 623.74 512.91 626.98 501.42 624.81 489.94 C 624.12 488.29 626.02 487.67 627.07 487.03 C 632.34 484.18 637.36 480.82 641.92 476.91 C 643.89 475.69 643.07 472.20 640.84 471.78 C 638.58 470.89 636.85 473.11 635.13 474.17 C 624.36 482.72 610.87 488.38 596.97 487.95 C 585.32 487.51 574.05 483.98 563.25 479.82 C 541.98 471.45 521.56 460.99 502.19 448.86 C 500.79 447.85 498.98 447.36 497.50 448.54 M 208.32 512.22 C 179.28 515.54 154.12 537.44 144.97 564.91 C 138.92 582.58 139.33 602.60 147.30 619.62 C 159.77 646.97 189.11 665.14 219.01 665.38 C 237.67 665.82 256.25 658.54 270.04 646.03 C 285.40 632.34 295.25 612.52 296.45 591.95 C 297.68 565.41 283.66 539.01 261.36 524.70 C 245.85 514.56 226.72 509.99 208.32 512.22 M 781.32 512.27 C 765.56 514.57 750.62 522.12 739.36 533.37 C 724.23 548.01 715.24 568.92 715.40 590.00 C 715.35 605.18 720.47 620.28 729.53 632.45 C 748.49 658.48 784.13 671.56 815.23 662.33 C 844.10 654.14 866.25 627.64 870.37 598.07 C 874.46 569.75 860.09 540.22 836.23 524.76 C 820.24 514.17 800.32 509.60 781.32 512.27 Z" />
</g>
<g id="#030203ff">
<path fill="#030203" opacity="1.00" d=" M 289.32 323.26 C 304.80 321.21 321.13 325.80 333.10 335.88 C 343.04 344.06 349.87 355.79 352.34 368.40 C 357.90 395.86 338.90 425.67 311.76 432.49 C 285.35 439.14 255.33 423.69 245.65 398.18 C 239.99 383.83 241.57 367.20 248.54 353.59 C 252.98 344.56 260.00 337.02 267.83 330.83 C 274.37 326.93 281.84 324.57 289.32 323.26 M 297.01 329.15 C 298.94 330.48 300.88 331.80 302.73 333.26 C 309.64 338.62 313.60 347.34 313.85 356.00 C 313.54 369.15 304.46 382.13 291.46 385.45 C 279.95 387.90 267.15 383.40 259.87 374.11 C 255.89 369.23 254.03 363.07 253.63 356.85 C 243.77 375.12 249.20 399.07 263.61 413.38 C 272.83 423.30 286.70 428.55 300.19 427.47 C 311.41 426.82 322.21 422.04 330.65 414.69 C 339.83 406.31 345.61 394.41 346.84 382.06 C 347.81 368.42 342.44 354.73 333.29 344.70 C 324.32 334.46 310.62 328.56 297.01 329.15 M 276.31 334.26 C 269.86 335.78 264.06 340.35 261.74 346.65 C 258.34 356.27 261.17 368.23 269.59 374.37 C 278.80 381.16 292.98 380.30 300.98 371.98 C 309.08 363.97 309.54 349.71 301.58 341.44 C 295.41 334.51 285.17 332.05 276.31 334.26 Z" />
</g>
<g id="#020203ff">
<path fill="#020203" opacity="1.00" d=" M 703.33 326.23 C 718.48 323.82 734.53 327.98 746.70 337.29 C 756.92 345.07 764.23 356.50 767.12 369.00 C 774.17 396.94 754.96 428.30 727.08 435.22 C 700.43 442.04 670.19 426.18 660.69 400.37 C 655.39 386.51 656.94 370.63 663.29 357.39 C 667.69 348.04 674.83 340.24 682.82 333.81 C 689.02 329.94 696.20 327.71 703.33 326.23 M 712.02 332.12 C 716.08 334.50 720.24 337.05 722.98 340.99 C 727.02 346.79 729.66 353.90 728.98 361.05 C 727.79 372.17 720.70 382.90 710.17 387.16 C 695.80 392.70 678.34 384.92 671.63 371.35 C 669.91 367.78 669.51 363.79 668.70 359.96 C 658.34 379.79 665.60 405.65 682.42 419.59 C 688.79 424.51 696.14 428.46 704.15 429.76 C 719.09 432.13 735.06 427.55 746.15 417.19 C 758.14 406.16 764.60 388.88 761.35 372.74 C 759.38 362.13 753.78 352.39 746.14 344.83 C 737.03 336.32 724.57 331.23 712.02 332.12 M 693.39 336.64 C 686.36 337.78 679.73 342.34 677.12 349.11 C 673.65 358.56 676.21 370.39 684.29 376.71 C 692.66 383.32 705.43 383.37 713.89 376.88 C 719.43 372.74 722.52 365.85 722.72 359.01 C 722.56 352.16 719.26 345.31 713.66 341.29 C 707.91 337.05 700.40 335.41 693.39 336.64 Z" />
</g>
<g id="#343434ff">
<path fill="#343434" opacity="1.00" d=" M 297.01 329.15 C 310.62 328.56 324.32 334.46 333.29 344.70 C 342.44 354.73 347.81 368.42 346.84 382.06 C 345.61 394.41 339.83 406.31 330.65 414.69 C 322.21 422.04 311.41 426.82 300.19 427.47 C 286.70 428.55 272.83 423.30 263.61 413.38 C 249.20 399.07 243.77 375.12 253.63 356.85 C 254.03 363.07 255.89 369.23 259.87 374.11 C 267.15 383.40 279.95 387.90 291.46 385.45 C 304.46 382.13 313.54 369.15 313.85 356.00 C 313.60 347.34 309.64 338.62 302.73 333.26 C 300.88 331.80 298.94 330.48 297.01 329.15 Z" />
<path fill="#343434" opacity="1.00" d=" M 712.02 332.12 C 724.57 331.23 737.03 336.32 746.14 344.83 C 753.78 352.39 759.38 362.13 761.35 372.74 C 764.60 388.88 758.14 406.16 746.15 417.19 C 735.06 427.55 719.09 432.13 704.15 429.76 C 696.14 428.46 688.79 424.51 682.42 419.59 C 665.60 405.65 658.34 379.79 668.70 359.96 C 669.51 363.79 669.91 367.78 671.63 371.35 C 678.34 384.92 695.80 392.70 710.17 387.16 C 720.70 382.90 727.79 372.17 728.98 361.05 C 729.66 353.90 727.02 346.79 722.98 340.99 C 720.24 337.05 716.08 334.50 712.02 332.12 Z" />
</g>
<g id="#ffffffff">
<path fill="#ffffff" opacity="1.00" d=" M 276.31 334.26 C 285.17 332.05 295.41 334.51 301.58 341.44 C 309.54 349.71 309.08 363.97 300.98 371.98 C 292.98 380.30 278.80 381.16 269.59 374.37 C 261.17 368.23 258.34 356.27 261.74 346.65 C 264.06 340.35 269.86 335.78 276.31 334.26 Z" />
<path fill="#ffffff" opacity="1.00" d=" M 693.39 336.64 C 700.40 335.41 707.91 337.05 713.66 341.29 C 719.26 345.31 722.56 352.16 722.72 359.01 C 722.52 365.85 719.43 372.74 713.89 376.88 C 705.43 383.37 692.66 383.32 684.29 376.71 C 676.21 370.39 673.65 358.56 677.12 349.11 C 679.73 342.34 686.36 337.78 693.39 336.64 Z" />
</g>
<g id="#020103ff">
<path fill="#020103" opacity="1.00" d=" M 489.43 393.70 C 496.23 392.80 503.17 392.78 509.96 393.76 C 512.59 394.25 515.49 394.62 517.57 396.46 C 519.66 400.04 516.01 403.36 513.60 405.61 C 509.43 409.04 505.07 412.58 500.07 414.68 C 494.54 411.89 489.27 408.47 484.63 404.36 C 482.61 402.51 480.19 399.63 481.71 396.78 C 483.68 394.67 486.73 394.21 489.43 393.70 Z" />
</g>
<g id="#050304ff">
<path fill="#050304" opacity="1.00" d=" M 497.50 448.54 C 498.98 447.36 500.79 447.85 502.19 448.86 C 521.56 460.99 541.98 471.45 563.25 479.82 C 574.05 483.98 585.32 487.51 596.97 487.95 C 610.87 488.38 624.36 482.72 635.13 474.17 C 636.85 473.11 638.58 470.89 640.84 471.78 C 643.07 472.20 643.89 475.69 641.92 476.91 C 637.36 480.82 632.34 484.18 627.07 487.03 C 626.02 487.67 624.12 488.29 624.81 489.94 C 626.98 501.42 623.74 512.91 621.17 524.04 C 612.95 563.30 600.33 601.58 584.36 638.35 C 576.58 655.91 567.52 672.93 556.90 688.94 C 548.10 701.83 537.57 714.16 523.73 721.79 C 514.38 726.99 502.72 728.40 492.73 724.20 C 479.74 718.91 470.16 707.98 462.20 696.82 C 449.58 678.64 440.58 658.30 432.09 637.96 C 411.97 590.66 395.77 541.72 383.06 491.92 C 375.98 488.81 369.18 484.78 363.69 479.27 C 362.16 477.76 363.67 475.75 364.40 474.27 C 368.11 473.74 370.39 477.01 373.11 478.91 C 383.34 486.52 396.21 491.24 409.08 489.93 C 418.22 489.17 426.84 485.75 435.13 482.03 C 456.59 472.17 477.27 460.69 497.50 448.54 M 495.29 457.26 C 481.53 465.74 467.38 473.59 452.95 480.86 C 439.18 487.10 425.45 494.70 410.06 495.74 C 402.75 496.46 395.47 495.33 388.29 494.07 C 393.82 513.22 400.66 531.97 406.76 550.94 C 419.21 588.40 431.72 626.06 449.76 661.29 C 457.91 676.38 465.97 691.75 477.03 704.96 C 484.34 713.34 494.21 721.63 506.03 720.86 C 516.19 719.94 525.33 714.42 532.96 707.94 C 543.76 698.47 551.88 686.39 559.08 674.07 C 579.66 637.78 595.01 598.66 606.09 558.48 C 608.07 554.14 608.79 549.39 609.92 544.80 C 611.78 536.50 614.33 528.38 616.13 520.08 C 618.26 510.55 620.67 500.86 619.81 491.03 C 613.55 492.49 607.34 494.54 600.85 494.51 C 587.97 494.48 575.36 491.16 563.38 486.65 C 546.68 480.39 530.61 472.55 515.04 463.89 C 509.80 461.39 505.25 457.62 499.92 455.31 C 498.22 455.49 496.75 456.47 495.29 457.26 Z" />
<path fill="#050304" opacity="1.00" d=" M 208.32 512.22 C 226.72 509.99 245.85 514.56 261.36 524.70 C 283.66 539.01 297.68 565.41 296.45 591.95 C 295.25 612.52 285.40 632.34 270.04 646.03 C 256.25 658.54 237.67 665.82 219.01 665.38 C 189.11 665.14 159.77 646.97 147.30 619.62 C 139.33 602.60 138.92 582.58 144.97 564.91 C 154.12 537.44 179.28 515.54 208.32 512.22 M 210.45 518.64 C 190.72 521.42 172.00 532.03 160.21 548.22 C 152.28 558.75 147.62 571.74 147.29 584.94 C 146.66 600.41 151.56 615.93 160.38 628.60 C 171.56 644.68 189.52 656.10 209.05 658.54 C 221.60 659.77 234.54 658.29 246.17 653.25 C 263.91 645.98 278.38 631.18 285.34 613.31 C 290.05 601.24 291.59 587.78 288.67 575.08 C 284.65 556.38 273.05 539.37 256.90 529.06 C 243.33 520.07 226.56 516.51 210.45 518.64 Z" />
<path fill="#050304" opacity="1.00" d=" M 781.32 512.27 C 800.32 509.60 820.24 514.17 836.23 524.76 C 860.09 540.22 874.46 569.75 870.37 598.07 C 866.25 627.64 844.10 654.14 815.23 662.33 C 784.13 671.56 748.49 658.48 729.53 632.45 C 720.47 620.28 715.35 605.18 715.40 590.00 C 715.24 568.92 724.23 548.01 739.36 533.37 C 750.62 522.12 765.56 514.57 781.32 512.27 M 784.44 518.60 C 757.83 522.32 733.19 541.17 724.96 567.10 C 716.05 593.49 726.21 624.05 747.08 641.91 C 759.42 652.60 775.59 659.07 792.00 658.79 C 808.06 659.17 824.07 653.50 836.78 643.78 C 850.91 633.17 860.64 617.01 863.70 599.63 C 868.51 573.50 855.54 545.97 834.22 530.75 C 820.01 520.48 801.80 516.01 784.44 518.60 Z" />
</g>
<g id="#7d272aff">
<path fill="#7d272a" opacity="1.00" d=" M 495.29 457.26 C 496.75 456.47 498.22 455.49 499.92 455.31 C 505.25 457.62 509.80 461.39 515.04 463.89 C 530.61 472.55 546.68 480.39 563.38 486.65 C 575.36 491.16 587.97 494.48 600.85 494.51 C 607.34 494.54 613.55 492.49 619.81 491.03 C 620.67 500.86 618.26 510.55 616.13 520.08 C 614.33 528.38 611.78 536.50 609.92 544.80 C 608.79 549.39 608.07 554.14 606.09 558.48 C 597.57 547.89 588.54 537.55 577.62 529.34 C 565.07 519.61 550.83 511.95 535.61 507.36 C 513.39 500.61 489.45 500.12 466.78 504.84 C 443.02 509.83 420.34 523.74 408.30 545.28 C 407.34 547.01 406.95 548.98 406.76 550.94 C 400.66 531.97 393.82 513.22 388.29 494.07 C 395.47 495.33 402.75 496.46 410.06 495.74 C 425.45 494.70 439.18 487.10 452.95 480.86 C 467.38 473.59 481.53 465.74 495.29 457.26 Z" />
</g>
<g id="#dc6569ff">
<path fill="#dc6569" opacity="1.00" d=" M 466.78 504.84 C 489.45 500.12 513.39 500.61 535.61 507.36 C 550.83 511.95 565.07 519.61 577.62 529.34 C 588.54 537.55 597.57 547.89 606.09 558.48 C 595.01 598.66 579.66 637.78 559.08 674.07 C 551.88 686.39 543.76 698.47 532.96 707.94 C 525.33 714.42 516.19 719.94 506.03 720.86 C 494.21 721.63 484.34 713.34 477.03 704.96 C 465.97 691.75 457.91 676.38 449.76 661.29 C 431.72 626.06 419.21 588.40 406.76 550.94 C 406.95 548.98 407.34 547.01 408.30 545.28 C 420.34 523.74 443.02 509.83 466.78 504.84 Z" />
</g>
<g id="#ea4a3cff">
<path fill="#ea4a3c" opacity="1.00" d=" M 210.45 518.64 C 226.56 516.51 243.33 520.07 256.90 529.06 C 273.05 539.37 284.65 556.38 288.67 575.08 C 291.59 587.78 290.05 601.24 285.34 613.31 C 278.38 631.18 263.91 645.98 246.17 653.25 C 234.54 658.29 221.60 659.77 209.05 658.54 C 189.52 656.10 171.56 644.68 160.38 628.60 C 151.56 615.93 146.66 600.41 147.29 584.94 C 147.62 571.74 152.28 558.75 160.21 548.22 C 172.00 532.03 190.72 521.42 210.45 518.64 Z" />
<path fill="#ea4a3c" opacity="1.00" d=" M 784.44 518.60 C 801.80 516.01 820.01 520.48 834.22 530.75 C 855.54 545.97 868.51 573.50 863.70 599.63 C 860.64 617.01 850.91 633.17 836.78 643.78 C 824.07 653.50 808.06 659.17 792.00 658.79 C 775.59 659.07 759.42 652.60 747.08 641.91 C 726.21 624.05 716.05 593.49 724.96 567.10 C 733.19 541.17 757.83 522.32 784.44 518.60 Z" />
</g>
</svg>
